<svg id="Layer_1" data-name="Layer 1" xmlns="http://www.w3.org/2000/svg" viewBox="0 0 3095 1137"><defs><style>.cls-1{fill:#151d39;}.cls-1,.cls-10,.cls-11,.cls-13,.cls-14,.cls-15,.cls-17,.cls-18,.cls-3,.cls-4,.cls-5,.cls-6,.cls-7,.cls-8,.cls-9{stroke:#000;stroke-width:6px;}.cls-1,.cls-10,.cls-11,.cls-13,.cls-15,.cls-17,.cls-18,.cls-3,.cls-5,.cls-6,.cls-7,.cls-8,.cls-9{stroke-linejoin:round;}.cls-2{fill:#00e9a9;}.cls-3{fill:#fff3dc;}.cls-17,.cls-18,.cls-3,.cls-5,.cls-6,.cls-7{stroke-linecap:round;}.cls-11,.cls-4,.cls-7{fill:none;}.cls-14,.cls-4{stroke-miterlimit:10;}.cls-5{fill:#0062ff;}.cls-6{fill:#ffd500;}.cls-8{fill:#7942ee;}.cls-12,.cls-9{fill:#e75a4e;}.cls-10{fill:#ef9a6a;}.cls-13{fill:#8c7156;}.cls-14{fill:#f1d7c9;}.cls-15{fill:#332d2b;}.cls-16{fill:#1e1a19;}.cls-17{fill:#b3b3b3;}.cls-18{fill:#4d4d4d;}</style></defs><path d="M980.85,716H958.69v9.51h12.94v6.9H958.69V742.7h22.16v6.9H950.63V709h30.22Z"/><path d="M1000.92,722.34c5.74,0,9.86,3.65,9.86,9.86v17.4h-7.54V734.11c0-3.36-2.15-4.75-4.53-4.75a7.37,7.37,0,0,0-5.62,3V749.6h-7.54V723h7.36v1c0,.93-.11,2.09-.11,2.09A10.42,10.42,0,0,1,1000.92,722.34Z"/><path d="M1022.84,736.32c0,4.17,2.73,7.25,6.67,7.25a6.09,6.09,0,0,0,5.86-4.06l7.08,2.2c-1.74,5.28-7,8.59-13,8.59a14,14,0,1,1,0-28c6,0,11.26,3.36,13,8.64l-7.08,2.15a6.16,6.16,0,0,0-5.86-4.06C1025.57,729.07,1022.84,732.14,1022.84,736.32Z"/><path d="M1063.21,730.46H1060c-3.83,0-5.57,1.8-5.57,6.44v12.7h-7.54V723h7.31v4.23a7,7,0,0,1,6.9-4.58,8.75,8.75,0,0,1,2.09.23Z"/><path d="M1075.85,749.6h-1.91L1064.83,723h8.41l5.63,18.9,5.68-18.9h8.18l-10.61,30.74c-1.34,3.88-3.43,6-8.3,6h-5.22v-6.32h3.71a2.76,2.76,0,0,0,3-2.09Z"/><path d="M1104.1,759.75h-7.54V723h7.54v1.27c0,1.28-.12,1.86-.12,2.15,1.28-2.26,4.41-4.12,8.41-4.12,7.31,0,12.88,5.86,12.88,14s-5.63,14-12.94,14c-3.77,0-6.9-1.8-8.23-4.06Zm-.18-23.43c0,4.06,2.79,7.31,6.79,7.31s6.79-3.25,6.79-7.31-2.79-7.25-6.79-7.25S1103.92,732.2,1103.92,736.32Z"/><path d="M1139.65,713V723h5.74v6.38h-5.74v12c0,1.68,1.34,1.92,2.5,1.92a34.14,34.14,0,0,0,3.48-.18v6.44s-3.66.35-5.86.35c-3.77,0-7.66-.64-7.66-6V729.42h-4.17V723h4.17V713Z"/><path d="M1159.72,749.6h-7.54V729.42h-3.71V723h11.25ZM1155.6,709a4.86,4.86,0,0,1,4.87,4.87,4.84,4.84,0,0,1-9.68,0A4.85,4.85,0,0,1,1155.6,709Z"/><path d="M1164.53,736.32a14.21,14.21,0,1,1,14.21,14A13.83,13.83,0,0,1,1164.53,736.32Zm7.54,0c0,4.12,2.73,7.25,6.67,7.25s6.62-3.13,6.62-7.25-2.73-7.25-6.62-7.25S1172.07,732.14,1172.07,736.32Z"/><path d="M1213.14,722.34c5.74,0,9.86,3.65,9.86,9.86v17.4h-7.54V734.11c0-3.36-2.15-4.75-4.53-4.75a7.37,7.37,0,0,0-5.62,3V749.6h-7.54V723h7.36v1c0,.93-.11,2.09-.11,2.09A10.42,10.42,0,0,1,1213.14,722.34Z"/><path d="M653.29,752.6H639.37V712h13.92c13.28,0,21.05,8.24,21.05,20.3S666.57,752.6,653.29,752.6ZM653,718.9h-5.57v26.86H653c7.42,0,13.1-4.35,13.1-13.46S660.42,718.9,653,718.9Z"/><path d="M693.77,734.91c0-1.91-1.51-3.13-4.41-3.13a18.06,18.06,0,0,0-8,2.49l-3-5.68a22.73,22.73,0,0,1,11.37-3.25c6,0,11.54,2.78,11.54,9.8V752.6h-7.54v-2.49c-1.39,2.08-4.41,3.19-7.42,3.19-5.63,0-9.28-4-9.28-8.36,0-5,3.71-8.17,9.63-8.17h5.21c1.28,0,1.86-.58,1.86-1.57Zm0,8.18v-1.92a3.25,3.25,0,0,1-2.32.58h-2.84c-2.38,0-3.77,1-3.77,2.9s1.45,3.14,3.77,3.14C691.33,747.79,693.77,746.39,693.77,743.09Z"/><path d="M717,716V726h5.74v6.38H717v12c0,1.68,1.33,1.92,2.49,1.92a33.89,33.89,0,0,0,3.48-.18v6.44s-3.65.35-5.86.35c-3.77,0-7.65-.64-7.65-6V732.42h-4.18V726h4.18V716Z"/><path d="M742.72,734.91c0-1.91-1.51-3.13-4.41-3.13a18.06,18.06,0,0,0-8,2.49l-3-5.68a22.73,22.73,0,0,1,11.37-3.25c6,0,11.54,2.78,11.54,9.8V752.6h-7.54v-2.49c-1.39,2.08-4.41,3.19-7.42,3.19-5.63,0-9.28-4-9.28-8.36,0-5,3.71-8.17,9.63-8.17h5.22c1.27,0,1.85-.58,1.85-1.57Zm0,8.18v-1.92a3.23,3.23,0,0,1-2.32.58h-2.84c-2.38,0-3.77,1-3.77,2.9s1.45,3.14,3.77,3.14C740.29,747.79,742.72,746.39,742.72,743.09Z"/><rect class="cls-1" x="1350" y="333" width="368" height="312"/><path class="cls-2" d="M1407.17,384.24c0,14.44-5.63,21.06-14.16,21.06s-14.21-6.62-14.21-21.06c0-14.21,5.63-20.94,14.21-20.94S1407.17,370,1407.17,384.24ZM1393,397.87c4,0,5.92-4.58,5.92-13.63s-1.91-13.57-5.92-13.57-5.91,4.64-5.91,13.57S1389,397.87,1393,397.87Z"/><path class="cls-2" d="M1413.43,364H1429v33.64h7.83v7H1413v-7h7.83V371h-7.36Z"/><path class="cls-2" d="M1469.69,384.24c0,14.44-5.63,21.06-14.15,21.06s-14.21-6.62-14.21-21.06c0-14.21,5.62-20.94,14.21-20.94S1469.69,370,1469.69,384.24Zm-14.15,13.63c4,0,5.91-4.58,5.91-13.63s-1.91-13.57-5.91-13.57-5.92,4.64-5.92,13.57S1451.48,397.87,1455.54,397.87Z"/><path class="cls-2" d="M1501,384.24c0,14.44-5.63,21.06-14.15,21.06s-14.21-6.62-14.21-21.06c0-14.21,5.62-20.94,14.21-20.94S1501,370,1501,384.24Zm-14.15,13.63c4,0,5.91-4.58,5.91-13.63s-1.91-13.57-5.91-13.57-5.92,4.64-5.92,13.57S1482.74,397.87,1486.8,397.87Z"/><path class="cls-2" d="M1507.21,364h15.55v33.64h7.83v7h-23.84v-7h7.83V371h-7.37Z"/><path class="cls-2" d="M1563.47,384.24c0,14.44-5.62,21.06-14.15,21.06s-14.21-6.62-14.21-21.06c0-14.21,5.63-20.94,14.21-20.94S1563.47,370,1563.47,384.24Zm-14.15,13.63c4,0,5.92-4.58,5.92-13.63s-1.92-13.57-5.92-13.57-5.92,4.64-5.92,13.57S1545.26,397.87,1549.32,397.87Z"/><path class="cls-2" d="M1594.73,384.24c0,14.44-5.62,21.06-14.15,21.06s-14.21-6.62-14.21-21.06c0-14.21,5.63-20.94,14.21-20.94S1594.73,370,1594.73,384.24Zm-14.15,13.63c4,0,5.92-4.58,5.92-13.63s-1.92-13.57-5.92-13.57-5.91,4.64-5.91,13.57S1576.52,397.87,1580.58,397.87Z"/><path class="cls-2" d="M1626,384.24c0,14.44-5.62,21.06-14.15,21.06s-14.21-6.62-14.21-21.06c0-14.21,5.63-20.94,14.21-20.94S1626,370,1626,384.24Zm-14.15,13.63c4,0,5.92-4.58,5.92-13.63s-1.92-13.57-5.92-13.57-5.91,4.64-5.91,13.57S1607.78,397.87,1611.84,397.87Z"/><path class="cls-2" d="M1632.26,364h15.54v33.64h7.83v7h-23.84v-7h7.83V371h-7.36Z"/><path class="cls-2" d="M1688.52,384.24c0,14.44-5.63,21.06-14.16,21.06s-14.21-6.62-14.21-21.06c0-14.21,5.63-20.94,14.21-20.94S1688.52,370,1688.52,384.24Zm-14.16,13.63c4,0,5.92-4.58,5.92-13.63s-1.91-13.57-5.92-13.57-5.91,4.64-5.91,13.57S1670.3,397.87,1674.36,397.87Z"/><path class="cls-2" d="M1407.17,453.84c0,14.44-5.63,21.06-14.16,21.06s-14.21-6.62-14.21-21.06c0-14.21,5.63-20.94,14.21-20.94S1407.17,439.63,1407.17,453.84ZM1393,467.47c4,0,5.92-4.58,5.92-13.63s-1.91-13.57-5.92-13.57-5.91,4.64-5.91,13.57S1389,467.47,1393,467.47Z"/><path class="cls-2" d="M1438.43,453.84c0,14.44-5.63,21.06-14.16,21.06s-14.21-6.62-14.21-21.06c0-14.21,5.63-20.94,14.21-20.94S1438.43,439.63,1438.43,453.84Zm-14.16,13.63c4,0,5.92-4.58,5.92-13.63s-1.91-13.57-5.92-13.57-5.91,4.64-5.91,13.57S1420.21,467.47,1424.27,467.47Z"/><path class="cls-2" d="M1469.69,453.84c0,14.44-5.63,21.06-14.15,21.06s-14.21-6.62-14.21-21.06c0-14.21,5.62-20.94,14.21-20.94S1469.69,439.63,1469.69,453.84Zm-14.15,13.63c4,0,5.91-4.58,5.91-13.63s-1.91-13.57-5.91-13.57-5.92,4.64-5.92,13.57S1451.48,467.47,1455.54,467.47Z"/><path class="cls-2" d="M1476,433.6h15.55v33.64h7.82v7h-23.83v-7h7.83V440.56H1476Z"/><path class="cls-2" d="M1532.21,453.84c0,14.44-5.63,21.06-14.15,21.06s-14.21-6.62-14.21-21.06c0-14.21,5.62-20.94,14.21-20.94S1532.21,439.63,1532.21,453.84Zm-14.15,13.63c4,0,5.91-4.58,5.91-13.63s-1.91-13.57-5.91-13.57-5.92,4.64-5.92,13.57S1514,467.47,1518.06,467.47Z"/><path class="cls-2" d="M1538.47,433.6H1554v33.64h7.83v7H1538v-7h7.83V440.56h-7.37Z"/><path class="cls-2" d="M1594.73,453.84c0,14.44-5.62,21.06-14.15,21.06s-14.21-6.62-14.21-21.06c0-14.21,5.63-20.94,14.21-20.94S1594.73,439.63,1594.73,453.84Zm-14.15,13.63c4,0,5.92-4.58,5.92-13.63s-1.92-13.57-5.92-13.57-5.91,4.64-5.91,13.57S1576.52,467.47,1580.58,467.47Z"/><path class="cls-2" d="M1601,433.6h15.54v33.64h7.83v7h-23.84v-7h7.83V440.56H1601Z"/><path class="cls-2" d="M1657.25,453.84c0,14.44-5.62,21.06-14.15,21.06s-14.21-6.62-14.21-21.06c0-14.21,5.63-20.94,14.21-20.94S1657.25,439.63,1657.25,453.84Zm-14.15,13.63c4,0,5.92-4.58,5.92-13.63s-1.91-13.57-5.92-13.57-5.91,4.64-5.91,13.57S1639,467.47,1643.1,467.47Z"/><path class="cls-2" d="M1663.52,433.6h15.54v33.64h7.83v7h-23.84v-7h7.83V440.56h-7.36Z"/><path class="cls-2" d="M1382.17,503.2h15.54v33.64h7.83v7H1381.7v-7h7.83V510.16h-7.36Z"/><path class="cls-2" d="M1438.43,523.44c0,14.44-5.63,21.06-14.16,21.06s-14.21-6.62-14.21-21.06c0-14.21,5.63-20.94,14.21-20.94S1438.43,509.23,1438.43,523.44Zm-14.16,13.63c4,0,5.92-4.58,5.92-13.63s-1.91-13.57-5.92-13.57-5.91,4.64-5.91,13.57S1420.21,537.07,1424.27,537.07Z"/><path class="cls-2" d="M1444.69,503.2h15.54v33.64h7.83v7h-23.83v-7h7.83V510.16h-7.37Z"/><path class="cls-2" d="M1501,523.44c0,14.44-5.63,21.06-14.15,21.06s-14.21-6.62-14.21-21.06c0-14.21,5.62-20.94,14.21-20.94S1501,509.23,1501,523.44Zm-14.15,13.63c4,0,5.91-4.58,5.91-13.63s-1.91-13.57-5.91-13.57-5.92,4.64-5.92,13.57S1482.74,537.07,1486.8,537.07Z"/><path class="cls-2" d="M1507.21,503.2h15.55v33.64h7.83v7h-23.84v-7h7.83V510.16h-7.37Z"/><path class="cls-2" d="M1563.47,523.44c0,14.44-5.62,21.06-14.15,21.06s-14.21-6.62-14.21-21.06c0-14.21,5.63-20.94,14.21-20.94S1563.47,509.23,1563.47,523.44Zm-14.15,13.63c4,0,5.92-4.58,5.92-13.63s-1.92-13.57-5.92-13.57-5.92,4.64-5.92,13.57S1545.26,537.07,1549.32,537.07Z"/><path class="cls-2" d="M1569.74,503.2h15.54v33.64h7.83v7h-23.84v-7h7.83V510.16h-7.36Z"/><path class="cls-2" d="M1601,503.2h15.54v33.64h7.83v7h-23.84v-7h7.83V510.16H1601Z"/><path class="cls-2" d="M1657.25,523.44c0,14.44-5.62,21.06-14.15,21.06s-14.21-6.62-14.21-21.06c0-14.21,5.63-20.94,14.21-20.94S1657.25,509.23,1657.25,523.44Zm-14.15,13.63c4,0,5.92-4.58,5.92-13.63s-1.91-13.57-5.92-13.57-5.91,4.64-5.91,13.57S1639,537.07,1643.1,537.07Z"/><path class="cls-2" d="M1688.52,523.44c0,14.44-5.63,21.06-14.16,21.06s-14.21-6.62-14.21-21.06c0-14.21,5.63-20.94,14.21-20.94S1688.52,509.23,1688.52,523.44Zm-14.16,13.63c4,0,5.92-4.58,5.92-13.63s-1.91-13.57-5.92-13.57-5.91,4.64-5.91,13.57S1670.3,537.07,1674.36,537.07Z"/><path class="cls-2" d="M1382.17,572.8h15.54v33.64h7.83v7H1381.7v-7h7.83V579.76h-7.36Z"/><path class="cls-2" d="M1438.43,593c0,14.44-5.63,21.06-14.16,21.06s-14.21-6.62-14.21-21.06c0-14.21,5.63-20.93,14.21-20.93S1438.43,578.83,1438.43,593Zm-14.16,13.63c4,0,5.92-4.58,5.92-13.63s-1.91-13.57-5.92-13.57-5.91,4.64-5.91,13.57S1420.21,606.67,1424.27,606.67Z"/><path class="cls-2" d="M1444.69,572.8h15.54v33.64h7.83v7h-23.83v-7h7.83V579.76h-7.37Z"/><path class="cls-2" d="M1501,593c0,14.44-5.63,21.06-14.15,21.06s-14.21-6.62-14.21-21.06c0-14.21,5.62-20.93,14.21-20.93S1501,578.83,1501,593Zm-14.15,13.63c4,0,5.91-4.58,5.91-13.63s-1.91-13.57-5.91-13.57-5.92,4.64-5.92,13.57S1482.74,606.67,1486.8,606.67Z"/><path class="cls-2" d="M1507.21,572.8h15.55v33.64h7.83v7h-23.84v-7h7.83V579.76h-7.37Z"/><path class="cls-2" d="M1563.47,593c0,14.44-5.62,21.06-14.15,21.06s-14.21-6.62-14.21-21.06c0-14.21,5.63-20.93,14.21-20.93S1563.47,578.83,1563.47,593Zm-14.15,13.63c4,0,5.92-4.58,5.92-13.63s-1.92-13.57-5.92-13.57-5.92,4.64-5.92,13.57S1545.26,606.67,1549.32,606.67Z"/><path class="cls-2" d="M1594.73,593c0,14.44-5.62,21.06-14.15,21.06s-14.21-6.62-14.21-21.06c0-14.21,5.63-20.93,14.21-20.93S1594.73,578.83,1594.73,593Zm-14.15,13.63c4,0,5.92-4.58,5.92-13.63s-1.92-13.57-5.92-13.57-5.91,4.64-5.91,13.57S1576.52,606.67,1580.58,606.67Z"/><path class="cls-2" d="M1601,572.8h15.54v33.64h7.83v7h-23.84v-7h7.83V579.76H1601Z"/><path class="cls-2" d="M1657.25,593c0,14.44-5.62,21.06-14.15,21.06s-14.21-6.62-14.21-21.06c0-14.21,5.63-20.93,14.21-20.93S1657.25,578.83,1657.25,593Zm-14.15,13.63c4,0,5.92-4.58,5.92-13.63s-1.91-13.57-5.92-13.57-5.91,4.64-5.91,13.57S1639,606.67,1643.1,606.67Z"/><path class="cls-2" d="M1663.52,572.8h15.54v33.64h7.83v7h-23.84v-7h7.83V579.76h-7.36Z"/><polygon class="cls-3" points="807 663.12 576 663.12 576 408.58 620.16 364.78 807 364.78 807 663.12"/><polyline class="cls-4" points="620.33 364.78 620.33 409.11 576 409.11"/><line class="cls-4" x1="655.91" y1="437.84" x2="784.65" y2="437.84"/><line class="cls-4" x1="600.48" y1="464.45" x2="784.65" y2="464.45"/><line class="cls-4" x1="600.48" y1="491.07" x2="784.65" y2="491.07"/><line class="cls-4" x1="600.48" y1="516.62" x2="784.65" y2="516.62"/><line class="cls-4" x1="600.48" y1="542.16" x2="784.65" y2="542.16"/><line class="cls-4" x1="600.48" y1="567.71" x2="784.65" y2="567.71"/><line class="cls-4" x1="600.48" y1="593.26" x2="784.65" y2="593.26"/><line class="cls-4" x1="600.48" y1="618.81" x2="784.65" y2="618.81"/><path class="cls-5" d="M1940.71,966.79A69.71,69.71,0,1,0,2001.85,1070h20l13.49-16.16,20.25,16.16,18.51-16.74,18.51,16.74,20.83-15,17.36,15h1.43l33.81-33.81-33.81-33.81H2001.53A69.7,69.7,0,0,0,1940.71,966.79Zm-50,69.71a23.43,23.43,0,1,1,23.43,23.43A23.43,23.43,0,0,1,1890.67,1036.5Z"/><line class="cls-5" x1="2005.8" y1="1036.21" x2="2159.81" y2="1036.21"/><path class="cls-6" d="M994.71,965.79A69.71,69.71,0,1,0,1055.85,1069h20l13.49-16.16,20.25,16.16,18.51-16.74,18.51,16.74,20.83-15,17.36,15h1.43l33.81-33.81-33.81-33.81H1055.53A69.7,69.7,0,0,0,994.71,965.79Zm-50,69.71a23.43,23.43,0,1,1,23.43,23.43A23.43,23.43,0,0,1,944.67,1035.5Z"/><line class="cls-7" x1="1059.8" y1="1035.21" x2="1213.81" y2="1035.21"/><polyline class="cls-7" points="1033.75 847.75 1071.25 810.25 1108.75 847.75"/><line class="cls-7" x1="1071.25" y1="811.78" x2="1071.25" y2="934"/><polyline class="cls-7" points="1962.75 847.75 2000.25 810.25 2037.75 847.75"/><line class="cls-7" x1="2000.25" y1="811.78" x2="2000.25" y2="934"/><polyline class="cls-7" points="1267.62 465.62 1305.13 503.13 1267.62 540.63"/><line class="cls-7" x1="1303.59" y1="503.13" x2="1187" y2="503.13"/><path d="M164.93,720.79c-2.5-2.44-5.74-4.18-8.59-4.18-2.66,0-5.1,1.39-5.1,3.83,0,1.86,1.16,3.31,4.41,4.81l3.36,1.57c6.44,3,10.33,6.38,10.33,12.47s-5.17,12-14.1,12a20,20,0,0,1-14.55-6.09l4.46-6c3,3.08,6.84,4.82,9.92,4.82,3.48,0,5.62-1.92,5.62-4.41,0-2.78-2.49-4.35-6.38-6.15l-2.84-1.33c-5.45-2.55-8.87-6.27-8.87-11.37,0-7.13,6.38-11.43,13.57-11.43,4.7,0,9.51,2.32,13.4,5.69Z"/><path d="M200.31,739.52H180.53A6.31,6.31,0,0,0,192,742.13l7.83.81c-2.38,5.69-7.37,8.36-13.29,8.36a13.55,13.55,0,0,1-13.92-14c0-8.12,5.86-14,13.81-14,7.31,0,13.92,4.76,13.92,15.89Zm-19.95-5h11.89a5.77,5.77,0,0,0-5.86-4.88A5.92,5.92,0,0,0,180.36,734.48Z"/><path d="M220.14,723.34c5.75,0,9.86,3.65,9.86,9.86v17.4h-7.54V735.11c0-3.36-2.14-4.75-4.52-4.75a7.39,7.39,0,0,0-5.63,3V750.6h-7.54V724h7.37v1c0,.93-.12,2.09-.12,2.09A10.44,10.44,0,0,1,220.14,723.34Z"/><path d="M255.75,747.24c-1.33,2.2-4.46,4.06-8.29,4.06-7.31,0-12.87-5.86-12.87-14s5.51-14,12.81-14c4.06,0,7.14,1.86,8.47,4.12,0-.87-.12-3.08-.12-5.05V710h7.54v40.6h-7.54Zm-13.39-9.92c0,4.06,2.78,7.31,6.78,7.31s6.79-3.25,6.79-7.31-2.78-7.25-6.79-7.25S242.36,733.2,242.36,737.32Z"/><path d="M295.83,739.52H276.05a6.31,6.31,0,0,0,11.43,2.61l7.83.81c-2.38,5.69-7.37,8.36-13.28,8.36a13.55,13.55,0,0,1-13.92-14c0-8.12,5.86-14,13.8-14,7.31,0,13.92,4.76,13.92,15.89Zm-19.95-5h11.89a5.77,5.77,0,0,0-5.86-4.88A5.92,5.92,0,0,0,275.88,734.48Z"/><path d="M316.6,731.46h-3.19c-3.83,0-5.57,1.8-5.57,6.44v12.7H300.3V724h7.31v4.23a7,7,0,0,1,6.9-4.58,8.81,8.81,0,0,1,2.09.23Z"/><path class="cls-8" d="M172.88,478.63H160.25c-61.34,0-84.15,16-92.37,38.1C57.38,545,48.59,573,48.59,573L23.75,661.58,436,659.45,409.31,568.4s-12.46-35.12-18.13-47c-9.44-19.84-19.43-42.76-80.77-42.76H172.88Z"/><line class="cls-7" x1="345.59" y1="606.37" x2="355.78" y2="658.99"/><line class="cls-7" x1="123.58" y1="608.06" x2="113.04" y2="660.69"/><path class="cls-9" d="M119.39,485.38c14-12.63,29.84-41.6,17.79-73.45-15-39.59,0-99.27,0-99.27a91.24,91.24,0,0,1,182.47,0s16.36,51.07,2.59,94.11c-6.56,20.48,1.11,39.2,6.27,54.52,12.14,36-11.38,52.67-64.75,57.83-26,2.52-62.54-.57-62.54-.57s-10.33,75.75,16.06,107.88l-59.67,8-4.59-23-29.27-2.3-2.3-28.69-37.29-6.88S81.86,519.12,119.39,485.38Z"/><path class="cls-10" d="M300.49,306.24c-8.61-12.05-42.46-15.84-74-15.5-26.68.29-55.66.86-70.86,23.82-7.11,10.73-13.1,24.53-13.36,33.22-.72,23.6,16.89,40.91,16.89,40.91s-3,51.56,27.71,58.51c2.62,4.9,17,11.41,37,11.79h8.32c20.43.38,33.13-5.77,35.77-10.61,29.28-6.14,30.65-58.82,30.65-58.82s16.51-20.22,16.51-42.23C315.08,329.92,309.06,318.24,300.49,306.24Z"/><path class="cls-7" d="M290.74,347.66a24.38,24.38,0,0,0-48.75,0"/><circle class="cls-7" cx="265.65" cy="345.12" r="6.52"/><path class="cls-7" d="M215.11,347.66a24.38,24.38,0,0,0-48.75,0"/><circle class="cls-7" cx="190.02" cy="345.12" r="6.52"/><path class="cls-7" d="M227.47,351.3s-5.34,20-6.69,26.78c-1.72,8.61-6.5,19.51,8.41,27.73"/><path class="cls-7" d="M201.52,416.9a38.42,38.42,0,0,0,54.35,1"/><line class="cls-7" x1="290.4" y1="340.21" x2="299" y2="337.15"/><line class="cls-7" x1="287.14" y1="334.09" x2="293.84" y2="328.73"/><line class="cls-7" x1="167.08" y1="340.21" x2="158.48" y2="337.15"/><line class="cls-7" x1="170.33" y1="334.09" x2="163.64" y2="328.73"/><path class="cls-7" d="M311.39,365.91S302.21,454.28,277,469.78"/><path class="cls-7" d="M299.05,429.61s-18.93,43-76.6,45.9c0,0-70.15,3.59-80.91-35.14"/><path class="cls-7" d="M141.54,311.69s39-22.95,84.92-20.95"/><path class="cls-7" d="M314.26,310s-27-18.08-64.84-18.65"/><path class="cls-9" d="M132.36,468.92s5.16,46.76,68.86,49.63"/><path class="cls-9" d="M156.46,505.64S143.26,545,153,611.51"/><path class="cls-9" d="M121.45,580.52s-7.74-59.39,14.92-97.26"/><path class="cls-11" d="M324.59,450.84s1.72,49.35-101,46.48c-47.8-1.34-73.47-18.57-87.27-36.62"/><line class="cls-9" x1="154.88" y1="617.68" x2="209.54" y2="615.96"/><line class="cls-9" x1="122.41" y1="592.96" x2="152.25" y2="601.95"/><line class="cls-9" x1="84.92" y1="553.36" x2="119.92" y2="568.28"/><path class="cls-7" d="M167.84,315.36s7.77-3,21.21-3a82,82,0,0,1,21.22,3"/><path class="cls-7" d="M242.84,315.36s7.77-3,21.21-3a82,82,0,0,1,21.22,3"/><circle class="cls-12" cx="255.1" cy="633.25" r="4.65"/><circle class="cls-12" cx="242.14" cy="601.48" r="4.65"/><circle class="cls-12" cx="230.76" cy="590.57" r="4.65"/><circle class="cls-12" cx="249.34" cy="585.5" r="4.65"/><circle class="cls-12" cx="269.49" cy="588.82" r="4.65"/><circle class="cls-12" cx="227.91" cy="574.22" r="4.65"/><circle class="cls-12" cx="212.27" cy="584.41" r="4.65"/><circle class="cls-12" cx="232.07" cy="631.61" r="4.65"/><circle class="cls-12" cx="216.16" cy="635.29" r="4.65"/><circle class="cls-12" cx="144.56" cy="622.01" r="4.65"/><circle class="cls-12" cx="144.56" cy="640.34" r="4.65"/><circle class="cls-12" cx="154.56" cy="649.34" r="4.65"/><circle class="cls-12" cx="171.56" cy="646.34" r="4.65"/><circle class="cls-12" cx="185.56" cy="647.34" r="4.65"/><circle class="cls-12" cx="205.56" cy="650.34" r="4.65"/><circle class="cls-12" cx="222.56" cy="649.34" r="4.65"/><circle class="cls-12" cx="237.56" cy="643.34" r="4.65"/><circle class="cls-12" cx="251.56" cy="650.34" r="4.65"/><circle class="cls-12" cx="267.56" cy="641.34" r="4.65"/><circle class="cls-12" cx="280.56" cy="650.34" r="4.65"/><circle class="cls-12" cx="130.56" cy="649.34" r="4.65"/><circle class="cls-12" cx="130.42" cy="628.49" r="4.65"/><circle class="cls-12" cx="199.57" cy="640.15" r="4.65"/><circle class="cls-12" cx="229.24" cy="614.84" r="4.65"/><circle class="cls-12" cx="245.81" cy="620.16" r="4.65"/><circle class="cls-12" cx="217.52" cy="602.5" r="4.65"/><circle class="cls-12" cx="300.42" cy="554.42" r="4.65"/><circle class="cls-12" cx="289.04" cy="543.52" r="4.65"/><circle class="cls-12" cx="325.08" cy="553.47" r="4.65"/><circle class="cls-12" cx="313.7" cy="542.57" r="4.65"/><circle class="cls-12" cx="282.64" cy="527.64" r="4.65"/><circle class="cls-12" cx="270.55" cy="537.35" r="4.65"/><circle class="cls-12" cx="290.36" cy="584.56" r="4.65"/><circle class="cls-12" cx="287.52" cy="567.79" r="4.65"/><circle class="cls-12" cx="304.1" cy="573.1" r="4.65"/><circle class="cls-12" cx="343.69" cy="577.6" r="4.65"/><circle class="cls-12" cx="324.96" cy="567.89" r="4.65"/><circle class="cls-12" cx="304.34" cy="529.01" r="4.65"/><circle class="cls-12" cx="275.81" cy="555.44" r="4.65"/><circle class="cls-12" cx="266.66" cy="572.53" r="4.65"/><circle class="cls-12" cx="289.88" cy="618.97" r="4.65"/><circle class="cls-12" cx="280.4" cy="634.38" r="4.65"/><circle class="cls-12" cx="310.74" cy="614.7" r="4.65"/><circle class="cls-12" cx="301.74" cy="647.7" r="4.65"/><circle class="cls-12" cx="317.74" cy="644.7" r="4.65"/><circle class="cls-12" cx="336.74" cy="647.7" r="4.65"/><circle class="cls-12" cx="300.31" cy="632.44" r="4.65"/><circle class="cls-12" cx="260.49" cy="604.27" r="4.65"/><circle class="cls-12" cx="269.49" cy="621.58" r="4.65"/><circle class="cls-12" cx="72.09" cy="631.82" r="4.65"/><circle class="cls-12" cx="59.49" cy="616.21" r="4.65"/><circle class="cls-12" cx="74.16" cy="600.32" r="4.65"/><circle class="cls-12" cx="107.82" cy="623.95" r="4.65"/><circle class="cls-12" cx="98.82" cy="648.95" r="4.65"/><circle class="cls-12" cx="81.82" cy="648.95" r="4.65"/><circle class="cls-12" cx="67.82" cy="645.95" r="4.65"/><circle class="cls-12" cx="43.82" cy="638.95" r="4.65"/><circle class="cls-12" cx="54.82" cy="650.95" r="4.65"/><circle class="cls-12" cx="39.82" cy="650.95" r="4.65"/><circle class="cls-12" cx="94.63" cy="635.4" r="4.65"/><circle class="cls-12" cx="82.19" cy="620.14" r="4.65"/><circle class="cls-12" cx="55.95" cy="632.19" r="4.65"/><circle class="cls-12" cx="45.1" cy="624.38" r="4.65"/><circle class="cls-12" cx="308.37" cy="596.88" r="4.65"/><circle class="cls-12" cx="287.05" cy="602.67" r="4.65"/><circle class="cls-12" cx="345.83" cy="560.45" r="4.65"/><circle class="cls-12" cx="379.6" cy="526.76" r="4.65"/><circle class="cls-12" cx="366.66" cy="515.15" r="4.65"/><circle class="cls-12" cx="358.98" cy="499.27" r="4.65"/><circle class="cls-12" cx="340.96" cy="493.81" r="4.65"/><circle class="cls-12" cx="316.78" cy="517.76" r="4.65"/><circle class="cls-12" cx="346.89" cy="508.98" r="4.65"/><circle class="cls-12" cx="331.72" cy="510.88" r="4.65"/><circle class="cls-12" cx="366.69" cy="556.19" r="4.65"/><circle class="cls-12" cx="363.86" cy="539.42" r="4.65"/><circle class="cls-12" cx="380.44" cy="544.73" r="4.65"/><circle class="cls-12" cx="393.24" cy="553.98" r="4.65"/><circle class="cls-12" cx="352.14" cy="527.07" r="4.65"/><circle class="cls-12" cx="343" cy="544.16" r="4.65"/><circle class="cls-12" cx="328.76" cy="532.7" r="4.65"/><circle class="cls-12" cx="366.22" cy="590.6" r="4.65"/><circle class="cls-12" cx="356.74" cy="606.01" r="4.65"/><circle class="cls-12" cx="326.68" cy="585.06" r="4.65"/><circle class="cls-12" cx="326.2" cy="600.94" r="4.65"/><circle class="cls-12" cx="333.79" cy="615.64" r="4.65"/><circle class="cls-12" cx="319.9" cy="631.01" r="4.65"/><circle class="cls-12" cx="336.89" cy="632.03" r="4.65"/><circle class="cls-12" cx="387.08" cy="586.33" r="4.65"/><circle class="cls-12" cx="376.65" cy="604.07" r="4.65"/><circle class="cls-12" cx="408.57" cy="613.95" r="4.65"/><circle class="cls-12" cx="403.51" cy="597.52" r="4.65"/><circle class="cls-12" cx="392.61" cy="614.27" r="4.65"/><circle class="cls-12" cx="373.48" cy="618.53" r="4.65"/><circle class="cls-12" cx="375.06" cy="633.86" r="4.65"/><circle class="cls-12" cx="366.06" cy="646.86" r="4.65"/><circle class="cls-12" cx="383.06" cy="649.86" r="4.65"/><circle class="cls-12" cx="402.06" cy="646.86" r="4.65"/><circle class="cls-12" cx="417.06" cy="647.86" r="4.65"/><circle class="cls-12" cx="360.52" cy="626.75" r="4.65"/><circle class="cls-12" cx="396.08" cy="633.15" r="4.65"/><circle class="cls-12" cx="416" cy="631.22" r="4.65"/><circle class="cls-12" cx="345.83" cy="593.21" r="4.65"/><circle class="cls-12" cx="384.71" cy="568.51" r="4.65"/><circle class="cls-12" cx="399.17" cy="575.78" r="4.65"/><circle class="cls-12" cx="363.39" cy="574.3" r="4.65"/><circle class="cls-12" cx="257.79" cy="552.6" r="4.65"/><circle class="cls-12" cx="249.02" cy="569.43" r="4.65"/><circle class="cls-12" cx="90.4" cy="604.35" r="4.65"/><circle class="cls-12" cx="60.88" cy="568.55" r="4.65"/><circle class="cls-12" cx="75.26" cy="555.75" r="4.65"/><circle class="cls-12" cx="69.1" cy="541.85" r="4.65"/><circle class="cls-12" cx="81.11" cy="528.41" r="4.65"/><circle class="cls-12" cx="81.43" cy="512.45" r="4.65"/><circle class="cls-12" cx="94.72" cy="499.11" r="4.65"/><circle class="cls-12" cx="58.48" cy="594.06" r="4.65"/><circle class="cls-12" cx="49.16" cy="605.75" r="4.65"/><circle class="cls-12" cx="73.01" cy="578.91" r="4.65"/><circle class="cls-12" cx="110.55" cy="607.67" r="4.65"/><circle class="cls-12" cx="107.71" cy="591.38" r="4.65"/><circle class="cls-12" cx="90.07" cy="588.27" r="4.65"/><circle class="cls-12" cx="233.71" cy="558.07" r="4.65"/><circle class="cls-12" cx="242.25" cy="545.27" r="4.65"/><circle class="cls-12" cx="257.18" cy="530.33" r="4.65"/><circle class="cls-12" cx="241.06" cy="529.62" r="4.65"/><circle class="cls-12" cx="209.53" cy="566.51" r="4.65"/><circle class="cls-12" cx="225.69" cy="533.89" r="4.65"/><circle class="cls-12" cx="216.07" cy="551.99" r="4.65"/><circle class="cls-12" cx="210.04" cy="535.79" r="4.65"/><path d="M2759.71,735H2754v15.6H2746V710h15.25c8.88,0,14.1,5.28,14.1,12.35a11.43,11.43,0,0,1-7.72,11.14L2778,750.6h-9.28Zm.46-18H2754v11h6.15c4.47,0,7.08-2.09,7.08-5.57S2764.64,717,2760.17,717Z"/><path d="M2806.28,739.52H2786.5a6.31,6.31,0,0,0,11.43,2.61l7.83.81c-2.38,5.69-7.37,8.36-13.28,8.36a13.55,13.55,0,0,1-13.92-14c0-8.12,5.85-14,13.8-14,7.31,0,13.92,4.76,13.92,15.89Zm-20-5h11.89a5.77,5.77,0,0,0-5.86-4.88A5.92,5.92,0,0,0,2786.33,734.48Z"/><path d="M2816.6,737.32c0,4.17,2.73,7.25,6.67,7.25a6.08,6.08,0,0,0,5.86-4.06l7.08,2.2c-1.74,5.28-7,8.59-13,8.59a14,14,0,1,1,0-28c6,0,11.26,3.36,13,8.64l-7.08,2.15a6.15,6.15,0,0,0-5.86-4.06C2819.33,730.07,2816.6,733.14,2816.6,737.32Z"/><path d="M2849.78,750.6h-7.54V730.42h-3.71V724h11.25Zm-4.12-40.6a4.86,4.86,0,0,1,4.87,4.87,4.84,4.84,0,0,1-9.68,0A4.85,4.85,0,0,1,2845.66,710Z"/><path d="M2863.81,760.75h-7.54V724h7.54v1.27c0,1.28-.11,1.86-.11,2.15,1.27-2.26,4.41-4.12,8.41-4.12,7.31,0,12.87,5.86,12.87,14s-5.62,14-12.93,14c-3.77,0-6.9-1.8-8.24-4.06Zm-.17-23.43c0,4.06,2.78,7.31,6.79,7.31s6.78-3.25,6.78-7.31-2.78-7.25-6.78-7.25S2863.64,733.2,2863.64,737.32Z"/><path d="M2899,750.6h-7.54V730.42h-3.71V724H2899Zm-4.12-40.6a4.87,4.87,0,0,1,4.88,4.87,4.85,4.85,0,0,1-9.69,0A4.86,4.86,0,0,1,2894.84,710Z"/><path d="M2931.5,739.52h-19.78a6.31,6.31,0,0,0,11.43,2.61l7.83.81c-2.38,5.69-7.37,8.36-13.28,8.36a13.55,13.55,0,0,1-13.92-14c0-8.12,5.85-14,13.8-14,7.31,0,13.92,4.76,13.92,15.89Zm-19.95-5h11.89a5.77,5.77,0,0,0-5.86-4.88A5.92,5.92,0,0,0,2911.55,734.48Z"/><path d="M2951.33,723.34c5.75,0,9.86,3.65,9.86,9.86v17.4h-7.53V735.11c0-3.36-2.15-4.75-4.53-4.75a7.37,7.37,0,0,0-5.62,3V750.6H2936V724h7.36v1c0,.93-.11,2.09-.11,2.09A10.42,10.42,0,0,1,2951.33,723.34Z"/><path d="M2976.91,714V724h5.74v6.38h-5.74v12c0,1.68,1.34,1.92,2.5,1.92a34.14,34.14,0,0,0,3.48-.18v6.44s-3.66.35-5.86.35c-3.77,0-7.66-.64-7.66-6V730.42h-4.17V724h4.17V714Z"/><polygon class="cls-13" points="2899.58 496.04 2807.85 494.48 2811.13 458.74 2814.5 429.21 2891.43 428.17 2896.09 459 2899.58 496.04"/><path class="cls-14" d="M2919.21,657.68H2797.85V472.73s29.15,10.06,57.77,10.06c32.32,0,63.59-10.06,63.59-10.06Z"/><path class="cls-14" d="M2919.21,658H2797.85V482.05S2827,493,2855.62,493c32.32,0,63.59-10.94,63.59-10.94Z"/><path class="cls-13" d="M2922.46,318s9.83-8.22,22-2.35c8.7,4.2,9.71,13.65,5.53,24.2,0,0,9.62,30.15-14.3,30.14-22.94,0-18.41-14-18.41-14"/><path class="cls-7" d="M2926.84,359.71s-.87-6.12,4.15-6.76c2.65-.33,5.41,1.31,6.5,5.1,0,0,8.14-.75,5.9-12.47"/><path class="cls-7" d="M2928.14,324.47s17.83-5.65,14.84,12"/><line class="cls-7" x1="2935.95" y1="333.48" x2="2929.48" y2="347.54"/><path class="cls-13" d="M2786.26,315.27s-9.52-8.59-21.92-3.17c-8.85,3.87-10.22,13.27-6.43,24,0,0-10.75,29.77,13.16,30.66,22.92.85,18.91-13.27,18.91-13.27"/><path class="cls-7" d="M2780.32,356.75s1.09-6.09-3.9-6.91c-2.64-.43-5.45,1.1-6.69,4.85,0,0-8.1-1.06-5.42-12.68"/><path class="cls-7" d="M2780.34,321.48s-17.61-6.31-15.28,11.46"/><line class="cls-7" x1="2772.2" y1="330.19" x2="2778.13" y2="344.49"/><path class="cls-13" d="M2932.37,315.5c-3.12-4.33-1.25-10.06,1.71-24.28,2.13-10.22,3.12-17.6-1.14-30.66-5.92-18.16-31.23-42-75.53-42.6-52.25-.67-77.95,33.65-80.79,49.55-1.9,10.66-.57,13.78.14,23.15.6,7.92,3.46,19.14.48,22.58-6.81,7.87-7.84,17.62-8.09,25.88-.68,22.45,13.2,40.52,13.2,40.52l2.36,26.87s.2,31.89,29.37,38.5c2.49,4.66,9.38,10.73,28.35,11.08l19.84.38c19.43.36,26.42-5.74,28.94-10.35,27.85-5.84,29.81-37.9,29.81-37.9l2.83-25.92s13.16-15.88,14.58-36.77C2939.05,336.39,2939.42,325.28,2932.37,315.5Z"/><path class="cls-7" d="M2848.11,342.34s-27.25,26.67-17.32,41.46c4.26,6.34,14.72,0,14.72,0s7.81,7,15.87.29c0,0,7.09,4.21,12.57-.89"/><path class="cls-7" d="M2826.63,408.57a38,38,0,0,0,53.8,1"/><path class="cls-15" d="M2777.24,313.24c3-3.44.12-14.66-.48-22.58-.71-9.37-2-12.49-.14-23.15,2.84-15.9,28.54-50.22,80.79-49.55,44.3.57,69.61,24.44,75.53,42.6,4.26,13.06,3.27,20.44,1.14,30.66L2931,308.55s-29.53-17.33-29.24-45.15L2811,264s-1.42,19.41-7.67,29.82C2797.56,303.37,2777.24,313.24,2777.24,313.24Z"/><circle class="cls-16" cx="2921.71" cy="270.86" r="1.68"/><circle class="cls-16" cx="2912.58" cy="271.7" r="1.68"/><circle class="cls-16" cx="2924.51" cy="276.53" r="1.68"/><circle class="cls-16" cx="2917.69" cy="274.68" r="1.68"/><circle class="cls-16" cx="2912.74" cy="277.57" r="1.68"/><circle class="cls-16" cx="2917.07" cy="266.12" r="1.68"/><circle class="cls-16" cx="2920.18" cy="282.63" r="1.68"/><path class="cls-7" d="M2912.42,339.94a23.19,23.19,0,1,0-46.37.05"/><circle class="cls-7" cx="2888.55" cy="337.53" r="6.21"/><path class="cls-7" d="M2840.48,339.94a23.19,23.19,0,1,0-46.37.05"/><circle class="cls-7" cx="2816.61" cy="337.53" r="6.21"/><path class="cls-7" d="M2796.87,308.59s7.38-2.84,20.16-2.84a78,78,0,0,1,20.16,2.84"/><path class="cls-7" d="M2868.14,308.59s7.39-2.84,20.16-2.84a78,78,0,0,1,20.17,2.84"/><path class="cls-1" d="M2788.14,459.33c-62.47,0-85.71,17.46-94.08,41.64-10.69,30.88-19.64,61.5-19.64,61.5l-25.31,96.77L3069,656.91l-27.18-99.48s-12.7-38.38-18.47-51.38c-9.62-21.67-19.79-46.72-82.27-46.72h-45l-6.74,197.83h-59.42l-18.81-197.87Z"/><polyline class="cls-1" points="2914.58 458.74 2943.07 510.03 2920.8 547.85 2943.59 582.56 2908.36 656.64"/><polyline class="cls-1" points="2794.91 458.74 2766.41 510.03 2788.69 547.85 2765.89 582.56 2801.12 656.64"/><path d="M921.93,101.9h-15.3l-6.12-19.48H879l-5.71,19.48H858.38l23-71.4h16.93ZM889.8,45.8h-.21l-7.24,24.48h14.59Z"/><path d="M956,69.46a17,17,0,0,0-11.52-4.79c-3.47,0-4.69,1.73-4.69,3.16,0,1.63,1,2.75,3.46,3.57L951,73.85c9.58,3.16,12.85,8.36,12.85,14.48,0,6.84-5.82,14.79-18.57,14.79-10.3,0-16.72-4-20.6-7.34l7-9.18c3.36,3.16,9.38,5.81,13.77,5.81,3.16,0,5.1-1.63,5.1-3.46,0-2.35-1.53-3.37-5.31-4.49l-7.95-2.35c-7.55-2.45-10.81-7.55-10.81-13.67,0-7.65,6.93-14.48,18.15-14.48,6.12,0,13.36,1.83,18.87,6.93Z"/><path d="M986.29,101.9h-3.37l-16-46.72H981.7l9.89,33.26,10-33.26H1016L997.3,109.24c-2.34,6.84-6,10.51-14.58,10.51h-9.18V108.63h6.53a4.86,4.86,0,0,0,5.2-3.67Z"/><path d="M1084.11,74.46c0-5.71-3.67-8.16-7.75-8.16-3.78,0-7.15,2.14-9.7,5.3v30.3H1053.4V74.46c0-5.61-3.57-8.16-7.75-8.16-3.77,0-7.14,2.14-9.69,5.3v30.3H1022.7V55.18h13V57c0,1.63-.21,3.67-.21,3.67a18.11,18.11,0,0,1,14-6.73c6.93,0,12.34,3,15,8.46,3.88-5.4,9.18-8.46,15.71-8.46,10.1,0,17.24,6.42,17.24,17.34v30.6h-13.26Z"/><path d="M1169.68,74.46c0-5.71-3.67-8.16-7.75-8.16-3.77,0-7.14,2.14-9.69,5.3v30.3H1139V74.46c0-5.61-3.57-8.16-7.75-8.16-3.78,0-7.14,2.14-9.69,5.3v30.3h-13.26V55.18h13V57c0,1.63-.2,3.67-.2,3.67A18.11,18.11,0,0,1,1135,54c6.94,0,12.35,3,15,8.46,3.87-5.4,9.18-8.46,15.71-8.46C1175.8,54,1183,60.38,1183,71.3v30.6h-13.27Z"/><path d="M1239.65,82.42h-34.78a10.58,10.58,0,0,0,10.71,9.38c3.88,0,7.55-1.63,9.39-4.79l13.77,1.43c-4.19,10-13,14.68-23.36,14.68-14,0-24.48-10.3-24.48-24.58S1201.2,54,1215.17,54c12.86,0,24.48,8.36,24.48,27.95Zm-35.09-8.88h20.92A10.15,10.15,0,0,0,1215.17,65,10.42,10.42,0,0,0,1204.56,73.54Z"/><path d="M1264.23,37.43V55.18h10.1V66.4h-10.1V87.52c0,3,2.35,3.36,4.39,3.36,3.37,0,6.12-.3,6.12-.3V101.9s-6.43.61-10.3.61c-6.63,0-13.47-1.12-13.47-10.51V66.4h-7.34V55.18H1251V37.43Z"/><path d="M1312.17,68.24h-5.61c-6.73,0-9.79,3.16-9.79,11.32V101.9h-13.26V55.18h12.85v7.45c1.84-5,6.33-8.06,12.14-8.06a14.76,14.76,0,0,1,3.67.41Z"/><path d="M1335.63,101.9h-13.26V66.4h-6.53V55.18h19.79Zm-7.24-71.4a8.55,8.55,0,0,1,8.57,8.56,8.52,8.52,0,0,1-17,0A8.53,8.53,0,0,1,1328.39,30.5Z"/><path d="M1357.36,78.54c0,7.34,4.79,12.75,11.73,12.75a10.69,10.69,0,0,0,10.3-7.14L1391.84,88c-3.06,9.28-12.24,15.09-22.85,15.09-13.88,0-24.89-10.3-24.89-24.58S1355.11,54,1369,54c10.61,0,19.79,5.91,22.85,15.2l-12.45,3.77a10.84,10.84,0,0,0-10.3-7.14C1362.15,65.79,1357.36,71.2,1357.36,78.54Z"/><path d="M1425.6,70.79c0-3.37-2.66-5.51-7.76-5.51-4.69,0-10.61,2.35-14.07,4.39l-5.21-10a40,40,0,0,1,20-5.71c10.61,0,20.3,4.89,20.3,17.24v30.7H1425.6V97.51c-2.45,3.68-7.76,5.61-13.06,5.61-9.9,0-16.32-7-16.32-14.68,0-8.88,6.53-14.39,16.93-14.39h9.18c2.25,0,3.27-1,3.27-2.75Zm0,14.38V81.8c-.82.82-2.25,1-4.08,1h-5c-4.19,0-6.63,1.84-6.63,5.1s2.55,5.51,6.63,5.51C1421.31,93.43,1425.6,91,1425.6,85.17Z"/><path d="M1462.93,101.9h-13.16V30.5h13.16Z"/><path d="M1521,101.9h-24.48V30.5H1521c23.36,0,37,14.48,37,35.7S1544.32,101.9,1521,101.9Zm-.5-59.27h-9.8V89.86h9.8c13,0,23-7.65,23-23.66C1543.51,50.39,1533.51,42.63,1520.46,42.63Z"/><path d="M1592.16,70.79c0-3.37-2.65-5.51-7.75-5.51-4.69,0-10.61,2.35-14.08,4.39l-5.2-10a40,40,0,0,1,20-5.71c10.61,0,20.3,4.89,20.3,17.24v30.7h-13.26V97.51c-2.45,3.68-7.75,5.61-13.06,5.61-9.89,0-16.32-7-16.32-14.68,0-8.88,6.53-14.39,16.94-14.39h9.18c2.24,0,3.26-1,3.26-2.75Zm0,14.38V81.8c-.81.82-2.24,1-4.08,1h-5c-4.18,0-6.63,1.84-6.63,5.1s2.55,5.51,6.63,5.51C1587.88,93.43,1592.16,91,1592.16,85.17Z"/><path d="M1633.06,37.43V55.18h10.1V66.4h-10.1V87.52c0,3,2.35,3.36,4.39,3.36,3.37,0,6.12-.3,6.12-.3V101.9s-6.43.61-10.3.61c-6.63,0-13.47-1.12-13.47-10.51V66.4h-7.34V55.18h7.34V37.43Z"/><path d="M1678.25,70.79c0-3.37-2.65-5.51-7.75-5.51-4.7,0-10.61,2.35-14.08,4.39l-5.2-10a40,40,0,0,1,20-5.71c10.61,0,20.3,4.89,20.3,17.24v30.7h-13.26V97.51c-2.45,3.68-7.75,5.61-13.06,5.61-9.89,0-16.32-7-16.32-14.68,0-8.88,6.53-14.39,16.93-14.39H1675c2.25,0,3.27-1,3.27-2.75Zm0,14.38V81.8c-.82.82-2.25,1-4.08,1h-5c-4.18,0-6.63,1.84-6.63,5.1s2.55,5.51,6.63,5.51C1674,93.43,1678.25,91,1678.25,85.17Z"/><path d="M1777.7,42.74h-39V59.47h22.75V71.6h-22.75V89.76h39V101.9h-53.14V30.5h53.14Z"/><path d="M1813,54c10.1,0,17.34,6.42,17.34,17.34v30.6h-13.26V74.66c0-5.91-3.77-8.36-8-8.36-3.87,0-7.34,2.14-9.89,5.3v30.3H1786V55.18h13V57c0,1.63-.2,3.67-.2,3.67A18.36,18.36,0,0,1,1813,54Z"/><path d="M1851.54,78.54c0,7.34,4.8,12.75,11.74,12.75a10.7,10.7,0,0,0,10.3-7.14L1886,88c-3.06,9.28-12.24,15.09-22.85,15.09-13.87,0-24.89-10.3-24.89-24.58S1849.3,54,1863.17,54c10.61,0,19.79,5.91,22.85,15.2l-12.44,3.77a10.85,10.85,0,0,0-10.3-7.14C1856.34,65.79,1851.54,71.2,1851.54,78.54Z"/><path d="M1922.54,68.24h-5.61c-6.74,0-9.8,3.16-9.8,11.32V101.9h-13.26V55.18h12.86v7.45c1.83-5,6.32-8.06,12.14-8.06a14.86,14.86,0,0,1,3.67.41Z"/><path d="M1944.77,101.9h-3.36l-16-46.72h14.79l9.9,33.26,10-33.26h14.39l-18.67,54.06c-2.35,6.84-6,10.51-14.59,10.51H1932V108.63h6.53a4.86,4.86,0,0,0,5.2-3.67Z"/><path d="M1994.45,119.75h-13.27V55.18h13.27v2.25c0,2.24-.21,3.26-.21,3.77,2.25-4,7.75-7.24,14.79-7.24,12.85,0,22.65,10.3,22.65,24.58s-9.9,24.58-22.75,24.58c-6.63,0-12.14-3.16-14.48-7.14Zm-.31-41.21c0,7.14,4.9,12.85,11.93,12.85S2018,85.68,2018,78.54s-4.9-12.75-11.94-12.75S1994.14,71.3,1994.14,78.54Z"/><path d="M2057,37.43V55.18h10.1V66.4H2057V87.52c0,3,2.35,3.36,4.39,3.36,3.36,0,6.12-.3,6.12-.3V101.9s-6.43.61-10.31.61c-6.63,0-13.46-1.12-13.46-10.51V66.4h-7.34V55.18h7.34V37.43Z"/><path d="M2092.26,101.9H2079V66.4h-6.53V55.18h19.79ZM2085,30.5a8.55,8.55,0,0,1,8.57,8.56,8.52,8.52,0,0,1-17,0A8.53,8.53,0,0,1,2085,30.5Z"/><path d="M2100.73,78.54c0-14.28,11.12-24.58,25-24.58s25,10.3,25,24.58-11.12,24.58-25,24.58S2100.73,92.82,2100.73,78.54Zm13.26,0c0,7.24,4.79,12.75,11.73,12.75s11.63-5.51,11.63-12.75-4.8-12.75-11.63-12.75S2114,71.2,2114,78.54Z"/><path d="M2186.2,54c10.1,0,17.34,6.42,17.34,17.34v30.6h-13.26V74.66c0-5.91-3.77-8.36-8-8.36-3.88,0-7.35,2.14-9.9,5.3v30.3h-13.26V55.18h13V57c0,1.63-.21,3.67-.21,3.67A18.37,18.37,0,0,1,2186.2,54Z"/><path class="cls-17" d="M1027.56,504.82a11.73,11.73,0,0,1-11.72-11.73V448.48a63.24,63.24,0,0,1,126.48,0v42.31a11.72,11.72,0,0,1-23.44,0V448.48a39.8,39.8,0,0,0-79.6,0v44.61A11.72,11.72,0,0,1,1027.56,504.82Z"/><path class="cls-17" d="M1122.75,608.76h-92.28c-15.22,0-28-9.85-29.49-22.79l-9.67-82.22c-1.76-14.91,12-27.85,29.49-27.85h113.56c17.77,0,31.55,13.27,29.42,28.35l-11.61,82.22C1150.38,599.19,1137.75,608.76,1122.75,608.76Z"/><path class="cls-18" d="M1099.33,532.88A21.81,21.81,0,1,0,1065,550.7V572a12.57,12.57,0,0,0,25.13,0V550.7A21.79,21.79,0,0,0,1099.33,532.88Z"/><line class="cls-7" x1="948.59" y1="503.13" x2="832" y2="503.13"/><line class="cls-7" x1="543.59" y1="503.13" x2="427" y2="503.13"/><path d="M1867.58,749.6h-13.92V709h13.92c13.28,0,21.05,8.24,21.05,20.3S1880.86,749.6,1867.58,749.6Zm-.29-33.7h-5.57v26.86h5.57c7.42,0,13.11-4.35,13.11-13.46S1874.71,715.9,1867.29,715.9Z"/><path d="M1919.49,738.52h-19.78a6.31,6.31,0,0,0,11.43,2.61l7.83.81c-2.38,5.69-7.37,8.36-13.28,8.36a13.55,13.55,0,0,1-13.92-14c0-8.12,5.85-14,13.8-14,7.31,0,13.92,4.76,13.92,15.89Zm-20-5h11.89a5.77,5.77,0,0,0-5.86-4.88A5.92,5.92,0,0,0,1899.54,733.48Z"/><path d="M1929.81,736.32c0,4.17,2.73,7.25,6.67,7.25a6.08,6.08,0,0,0,5.86-4.06l7.08,2.2c-1.74,5.28-7,8.59-13,8.59a14,14,0,1,1,0-28c6,0,11.25,3.36,13,8.64l-7.08,2.15a6.15,6.15,0,0,0-5.86-4.06C1932.54,729.07,1929.81,732.14,1929.81,736.32Z"/><path d="M1970.18,730.46H1967c-3.83,0-5.57,1.8-5.57,6.44v12.7h-7.54V723h7.31v4.23a7,7,0,0,1,6.9-4.58,8.7,8.7,0,0,1,2.09.23Z"/><path d="M1982.82,749.6h-1.91L1971.8,723h8.41l5.63,18.9,5.68-18.9h8.18l-10.61,30.74c-1.34,3.88-3.42,6-8.3,6h-5.22v-6.32h3.72a2.76,2.76,0,0,0,3-2.09Z"/><path d="M2011.07,759.75h-7.54V723h7.54v1.27c0,1.28-.12,1.86-.12,2.15,1.28-2.26,4.41-4.12,8.41-4.12,7.31,0,12.88,5.86,12.88,14s-5.63,14-12.93,14c-3.77,0-6.91-1.8-8.24-4.06Zm-.17-23.43c0,4.06,2.78,7.31,6.78,7.31s6.79-3.25,6.79-7.31-2.79-7.25-6.79-7.25S2010.9,732.2,2010.9,736.32Z"/><path d="M2046.62,713V723h5.75v6.38h-5.75v12c0,1.68,1.34,1.92,2.5,1.92a34.14,34.14,0,0,0,3.48-.18v6.44s-3.66.35-5.86.35c-3.77,0-7.66-.64-7.66-6V729.42h-4.17V723h4.17V713Z"/><path d="M2066.69,749.6h-7.54V729.42h-3.71V723h11.25Zm-4.12-40.6a4.87,4.87,0,0,1,4.88,4.87,4.85,4.85,0,0,1-9.69,0A4.86,4.86,0,0,1,2062.57,709Z"/><path d="M2071.51,736.32a14.21,14.21,0,1,1,14.21,14A13.82,13.82,0,0,1,2071.51,736.32Zm7.54,0c0,4.12,2.72,7.25,6.67,7.25s6.61-3.13,6.61-7.25-2.73-7.25-6.61-7.25S2079.05,732.14,2079.05,736.32Z"/><path d="M2120.11,722.34c5.74,0,9.86,3.65,9.86,9.86v17.4h-7.54V734.11c0-3.36-2.15-4.75-4.52-4.75a7.37,7.37,0,0,0-5.63,3V749.6h-7.54V723h7.37v1c0,.93-.12,2.09-.12,2.09A10.44,10.44,0,0,1,2120.11,722.34Z"/><path d="M2320.29,749.6h-13.92V709h13.92c13.28,0,21.05,8.24,21.05,20.3S2333.57,749.6,2320.29,749.6Zm-.29-33.7h-5.57v26.86H2320c7.42,0,13.1-4.35,13.1-13.46S2327.42,715.9,2320,715.9Z"/><path d="M2360.77,731.91c0-1.91-1.51-3.13-4.41-3.13a18.06,18.06,0,0,0-8,2.49l-3-5.68a22.73,22.73,0,0,1,11.37-3.25c6,0,11.54,2.78,11.54,9.8V749.6h-7.54v-2.49c-1.39,2.08-4.41,3.19-7.42,3.19-5.63,0-9.28-4-9.28-8.36,0-5,3.71-8.17,9.63-8.17h5.22c1.27,0,1.85-.58,1.85-1.57Zm0,8.18v-1.92a3.23,3.23,0,0,1-2.32.58h-2.84c-2.38,0-3.77,1-3.77,2.9s1.45,3.14,3.77,3.14C2358.33,744.79,2360.77,743.39,2360.77,740.09Z"/><path d="M2384,713V723h5.74v6.38H2384v12c0,1.68,1.33,1.92,2.49,1.92a33.89,33.89,0,0,0,3.48-.18v6.44s-3.65.35-5.86.35c-3.77,0-7.65-.64-7.65-6V729.42h-4.18V723h4.18V713Z"/><path d="M2409.72,731.91c0-1.91-1.51-3.13-4.41-3.13a18.06,18.06,0,0,0-8,2.49l-3-5.68a22.73,22.73,0,0,1,11.37-3.25c6,0,11.54,2.78,11.54,9.8V749.6h-7.54v-2.49c-1.39,2.08-4.41,3.19-7.42,3.19-5.63,0-9.28-4-9.28-8.36,0-5,3.71-8.17,9.63-8.17h5.22c1.27,0,1.85-.58,1.85-1.57Zm0,8.18v-1.92a3.23,3.23,0,0,1-2.32.58h-2.84c-2.38,0-3.77,1-3.77,2.9s1.45,3.14,3.77,3.14C2407.29,744.79,2409.72,743.39,2409.72,740.09Z"/><polygon class="cls-3" points="2474 660.12 2243 660.12 2243 405.58 2287.16 361.78 2474 361.78 2474 660.12"/><polyline class="cls-4" points="2287.32 361.78 2287.32 406.11 2243 406.11"/><line class="cls-4" x1="2322.91" y1="434.84" x2="2451.65" y2="434.84"/><line class="cls-4" x1="2267.48" y1="461.45" x2="2451.65" y2="461.45"/><line class="cls-4" x1="2267.48" y1="488.07" x2="2451.65" y2="488.07"/><line class="cls-4" x1="2267.48" y1="513.62" x2="2451.65" y2="513.62"/><line class="cls-4" x1="2267.48" y1="539.16" x2="2451.65" y2="539.16"/><line class="cls-4" x1="2267.48" y1="564.71" x2="2451.65" y2="564.71"/><line class="cls-4" x1="2267.48" y1="590.26" x2="2451.65" y2="590.26"/><line class="cls-4" x1="2267.48" y1="615.81" x2="2451.65" y2="615.81"/><polyline class="cls-7" points="2586.62 465.62 2624.13 503.13 2586.62 540.63"/><line class="cls-7" x1="2622.59" y1="503.13" x2="2506" y2="503.13"/><path class="cls-17" d="M2023.88,448.48a39.8,39.8,0,0,0-79.6,0v44.61a11.72,11.72,0,1,1-23.44,0V448.48a63.24,63.24,0,0,1,126.48,0Z"/><path class="cls-17" d="M2027.75,608.76h-92.28c-15.22,0-28-9.85-29.49-22.79l-9.67-82.22c-1.76-14.91,12-27.85,29.49-27.85h113.56c17.77,0,31.55,13.27,29.42,28.35l-11.61,82.22C2055.38,599.19,2042.75,608.76,2027.75,608.76Z"/><path class="cls-18" d="M2004.33,532.88A21.81,21.81,0,1,0,1970,550.7V572a12.57,12.57,0,0,0,25.13,0V550.7A21.79,21.79,0,0,0,2004.33,532.88Z"/><line class="cls-7" x1="2214.59" y1="503.13" x2="2098" y2="503.13"/><line class="cls-7" x1="1862.59" y1="503.13" x2="1746" y2="503.13"/></svg>