<svg id="Layer_1" data-name="Layer 1" xmlns="http://www.w3.org/2000/svg" xmlns:xlink="http://www.w3.org/1999/xlink" viewBox="0 0 3570 945"><defs><style>.cls-1,.cls-11,.cls-18,.cls-22,.cls-7{fill:none;}.cls-12,.cls-2{fill:#fff;}.cls-10,.cls-11,.cls-12,.cls-13,.cls-14,.cls-16,.cls-17,.cls-18,.cls-19,.cls-2,.cls-20,.cls-21,.cls-22,.cls-23,.cls-3,.cls-4,.cls-5,.cls-6,.cls-7,.cls-8,.cls-9{stroke:#000;}.cls-14,.cls-17,.cls-2,.cls-22,.cls-3,.cls-4,.cls-5{stroke-miterlimit:10;}.cls-10,.cls-11,.cls-12,.cls-13,.cls-14,.cls-2,.cls-22,.cls-23,.cls-3,.cls-4,.cls-5,.cls-6,.cls-8,.cls-9{stroke-width:6px;}.cls-3{fill:#ededed;}.cls-4,.cls-9{fill:#0062ff;}.cls-5{fill:#dfdfdf;}.cls-6{fill:#ccc;}.cls-10,.cls-11,.cls-12,.cls-13,.cls-16,.cls-18,.cls-19,.cls-20,.cls-21,.cls-23,.cls-6,.cls-7,.cls-8,.cls-9{stroke-linejoin:round;}.cls-10,.cls-11,.cls-18,.cls-20,.cls-23,.cls-7,.cls-8{stroke-linecap:round;}.cls-7{stroke-width:7px;}.cls-8{fill:#b3b3b3;}.cls-10{fill:#666;}.cls-13{fill:#1af3c0;}.cls-14{fill:#ff9100;}.cls-15{clip-path:url(#clip-path);}.cls-16{fill:#8c7156;}.cls-16,.cls-17,.cls-18,.cls-19,.cls-21{stroke-width:4px;}.cls-17{fill:#f1d7c9;}.cls-19{fill:#332d2b;}.cls-20{stroke-width:3px;}.cls-21{fill:#151d39;}.cls-23{fill:#4d4d4d;}</style><clipPath id="clip-path"><circle class="cls-1" cx="430.88" cy="405.37" r="66.12"/></clipPath></defs><path d="M1209.36,95l-13.8-34.5V110h-13.5V40h19.6L1217,79.7l15.6-39.7h18.7v70h-13.8V60.5L1224.06,95Z"/><path d="M1263.46,93.2v-29h13V90.8c0,6.3,4.2,8.8,8.8,8.8s8.8-2.5,8.8-8.8V64.2H1307v29c0,9.6-7.6,18-21.7,18S1263.46,102.8,1263.46,93.2Z"/><path d="M1330.36,110h-12.9V40h12.9Z"/><path d="M1358,46.8V64.2h9.9v11H1358V95.9c0,2.9,2.3,3.3,4.3,3.3,3.3,0,6-.3,6-.3V110s-6.3.6-10.1.6c-6.5,0-13.2-1.1-13.2-10.3V75.2h-7.21v-11H1345V46.8Z"/><path d="M1392.56,110h-13V75.2h-6.4v-11h19.41Zm-7.1-70a8.39,8.39,0,0,1,8.4,8.4,8.36,8.36,0,0,1-16.71,0A8.37,8.37,0,0,1,1385.46,40Z"/><path d="M1439.36,82.2V110h-13.91V40h50.71V52h-36.8V70.2h27v12Z"/><path d="M1502.46,79.5c0-3.3-2.6-5.4-7.6-5.4-4.6,0-10.4,2.3-13.81,4.3l-5.1-9.8a39.25,39.25,0,0,1,19.61-5.6c10.4,0,19.9,4.8,19.9,16.9V110h-13v-4.3c-2.4,3.6-7.6,5.5-12.8,5.5-9.7,0-16-6.9-16-14.4,0-8.7,6.4-14.1,16.61-14.1h9c2.2,0,3.2-1,3.2-2.7Zm0,14.1V90.3c-.8.8-2.2,1-4,1h-4.9c-4.1,0-6.51,1.8-6.51,5s2.5,5.4,6.51,5.4C1498.26,101.7,1502.46,99.3,1502.46,93.6Z"/><path d="M1536.25,87.1c0,7.2,4.71,12.5,11.51,12.5a10.49,10.49,0,0,0,10.1-7l12.2,3.8c-3,9.1-12,14.8-22.4,14.8-13.61,0-24.41-10.1-24.41-24.1s10.8-24.1,24.41-24.1c10.4,0,19.4,5.8,22.4,14.9l-12.2,3.7a10.62,10.62,0,0,0-10.1-7C1541,74.6,1536.25,79.9,1536.25,87.1Z"/><path d="M1594.15,46.8V64.2h9.9v11h-9.9V95.9c0,2.9,2.3,3.3,4.3,3.3,3.3,0,6-.3,6-.3V110s-6.31.6-10.11.6c-6.5,0-13.2-1.1-13.2-10.3V75.2H1574v-11h7.2V46.8Z"/><path d="M1610.15,87.1c0-14,10.9-24.1,24.5-24.1s24.51,10.1,24.51,24.1-10.91,24.1-24.51,24.1S1610.15,101.1,1610.15,87.1Zm13,0c0,7.1,4.7,12.5,11.5,12.5s11.4-5.4,11.4-12.5-4.7-12.5-11.4-12.5S1623.15,79.9,1623.15,87.1Z"/><path d="M1695.55,77h-5.5c-6.6,0-9.6,3.1-9.6,11.1V110h-13V64.2h12.6v7.3c1.8-4.9,6.2-7.9,11.9-7.9a14.72,14.72,0,0,1,3.6.4Z"/><path d="M1776.16,110h-15l-6-19.1h-21.1l-5.6,19.1h-14.6l22.6-70h16.6Zm-31.51-55h-.2l-7.1,24h14.3Z"/><path d="M1780.85,93.2v-29h13V90.8c0,6.3,4.2,8.8,8.8,8.8s8.8-2.5,8.8-8.8V64.2h12.91v29c0,9.6-7.61,18-21.71,18S1780.85,102.8,1780.85,93.2Z"/><path d="M1851.25,46.8V64.2h9.9v11h-9.9V95.9c0,2.9,2.3,3.3,4.3,3.3,3.3,0,6-.3,6-.3V110s-6.3.6-10.1.6c-6.5,0-13.2-1.1-13.2-10.3V75.2h-7.2v-11h7.2V46.8Z"/><path d="M1896.65,63c9.9,0,17,6.3,17,17v30h-13V83.3c0-5.8-3.7-8.2-7.8-8.2-3.8,0-7.2,2.1-9.7,5.2V110h-13V40H1883V66c0,1.6-.2,3.6-.2,3.6A18,18,0,0,1,1896.65,63Z"/><path d="M1969.25,90.9h-34.1a10.37,10.37,0,0,0,10.5,9.2c3.8,0,7.4-1.6,9.2-4.7l13.5,1.4c-4.1,9.8-12.7,14.4-22.9,14.4-13.7,0-24-10.1-24-24.1s10.1-24.1,23.8-24.1c12.6,0,24,8.2,24,27.4Zm-34.4-8.7h20.5a9.93,9.93,0,0,0-10.1-8.4A10.21,10.21,0,0,0,1934.85,82.2Z"/><path d="M2003.45,63c9.9,0,17,6.3,17,17v30h-13V83.3c0-5.8-3.7-8.2-7.8-8.2-3.8,0-7.2,2.1-9.7,5.2V110h-13V64.2h12.7V66c0,1.6-.2,3.6-.2,3.6A18,18,0,0,1,2003.45,63Z"/><path d="M2047.55,46.8V64.2h9.9v11h-9.9V95.9c0,2.9,2.3,3.3,4.3,3.3,3.3,0,6-.3,6-.3V110s-6.3.6-10.1.6c-6.5,0-13.2-1.1-13.2-10.3V75.2h-7.2v-11h7.2V46.8Z"/><path d="M2082.15,110h-13V75.2h-6.4v-11h19.4Zm-7.1-70a8.39,8.39,0,0,1,8.4,8.4,8.35,8.35,0,0,1-16.7,0A8.37,8.37,0,0,1,2075.05,40Z"/><path d="M2103.45,87.1c0,7.2,4.7,12.5,11.5,12.5a10.49,10.49,0,0,0,10.1-7l12.2,3.8c-3,9.1-12,14.8-22.4,14.8-13.6,0-24.4-10.1-24.4-24.1s10.8-24.1,24.4-24.1c10.4,0,19.4,5.8,22.4,14.9l-12.2,3.7a10.62,10.62,0,0,0-10.1-7C2108.15,74.6,2103.45,79.9,2103.45,87.1Z"/><path d="M2170.35,79.5c0-3.3-2.6-5.4-7.6-5.4-4.6,0-10.4,2.3-13.8,4.3l-5.1-9.8a39.19,39.19,0,0,1,19.6-5.6c10.4,0,19.9,4.8,19.9,16.9V110h-13v-4.3c-2.4,3.6-7.6,5.5-12.8,5.5-9.7,0-16-6.9-16-14.4,0-8.7,6.4-14.1,16.6-14.1h9c2.2,0,3.2-1,3.2-2.7Zm0,14.1V90.3c-.8.8-2.2,1-4,1h-4.9c-4.1,0-6.5,1.8-6.5,5s2.5,5.4,6.5,5.4C2166.15,101.7,2170.35,99.3,2170.35,93.6Z"/><path d="M2210.45,46.8V64.2h9.9v11h-9.9V95.9c0,2.9,2.3,3.3,4.3,3.3,3.3,0,6-.3,6-.3V110s-6.3.6-10.1.6c-6.5,0-13.2-1.1-13.2-10.3V75.2h-7.2v-11h7.2V46.8Z"/><path d="M2245.05,110h-13V75.2h-6.4v-11h19.4ZM2238,40a8.39,8.39,0,0,1,8.4,8.4,8.35,8.35,0,0,1-16.7,0A8.37,8.37,0,0,1,2238,40Z"/><path d="M2253.35,87.1c0-14,10.9-24.1,24.5-24.1s24.5,10.1,24.5,24.1-10.9,24.1-24.5,24.1S2253.35,101.1,2253.35,87.1Zm13,0c0,7.1,4.7,12.5,11.5,12.5s11.4-5.4,11.4-12.5-4.7-12.5-11.4-12.5S2266.35,79.9,2266.35,87.1Z"/><path d="M2337.15,63c9.9,0,17,6.3,17,17v30h-13V83.3c0-5.8-3.7-8.2-7.8-8.2-3.8,0-7.2,2.1-9.7,5.2V110h-13V64.2h12.7V66c0,1.6-.2,3.6-.2,3.6A18,18,0,0,1,2337.15,63Z"/><rect class="cls-2" x="2111.13" y="294.05" width="367.87" height="581.91" rx="44"/><circle class="cls-3" cx="2295.49" cy="840.67" r="21.18"/><rect class="cls-4" x="2127.91" y="346.7" width="335.23" height="449.92"/><path class="cls-5" d="M2326.3,326.46a4.31,4.31,0,0,0,0-8.62h-65.39a4.31,4.31,0,1,0,0,8.62Z"/><circle class="cls-5" cx="2237.84" cy="322.57" r="4.74"/><rect class="cls-6" x="2182" y="598" width="228" height="64"/><polyline class="cls-7" points="1996.45 463.41 2034 500.86 1996.54 538.41"/><line class="cls-7" x1="2032.47" y1="500.87" x2="1808.5" y2="501.14"/><polyline class="cls-7" points="992.45 463.41 1030 500.86 992.54 538.41"/><line class="cls-7" x1="1028.47" y1="500.87" x2="804.5" y2="501.14"/><polyline class="cls-7" points="2727.45 463.41 2765 500.86 2727.54 538.41"/><line class="cls-7" x1="2763.47" y1="500.87" x2="2539.5" y2="501.14"/><rect class="cls-8" x="1108" y="281" width="630" height="442"/><polygon class="cls-8" points="1812 841.82 1024 841.82 1108 723 1738 723 1812 841.82"/><rect class="cls-9" x="1141" y="311.17" width="565" height="381.66"/><rect class="cls-8" x="1024" y="841.82" width="788" height="34.18"/><polygon class="cls-10" points="1725 803 1120 803 1158 738 1689 738 1725 803"/><line class="cls-11" x1="1422" y1="738" x2="1422" y2="803"/><line class="cls-11" x1="1590" y1="738" x2="1605" y2="803"/><line class="cls-11" x1="1541" y1="738" x2="1549" y2="803"/><line class="cls-11" x1="1482" y1="738" x2="1486" y2="803"/><line class="cls-11" x1="1639" y1="738" x2="1664" y2="803"/><line class="cls-11" x1="1256" y1="738" x2="1241" y2="803"/><line class="cls-11" x1="1305" y1="738" x2="1297" y2="803"/><line class="cls-11" x1="1364" y1="738" x2="1360" y2="803"/><line class="cls-11" x1="1207" y1="738" x2="1182" y2="803"/><line class="cls-11" x1="1153" y1="750" x2="1693" y2="750"/><line class="cls-11" x1="1143" y1="765" x2="1703" y2="765"/><line class="cls-11" x1="1133" y1="782" x2="1712" y2="782"/><polygon class="cls-11" points="1613 832.05 1234 832.05 1239 811.95 1607.93 811.95 1613 832.05"/><rect class="cls-12" x="1290" y="547" width="265" height="46"/><rect class="cls-13" x="1361" y="614" width="136" height="45"/><path d="M1406,629.41a7.4,7.4,0,0,0-4.74-2.3c-1.47,0-2.82.76-2.82,2.11,0,1,.64,1.82,2.44,2.65l1.85.87c3.55,1.66,5.7,3.52,5.7,6.88s-2.85,6.62-7.78,6.62a11,11,0,0,1-8-3.36l2.46-3.33a8.25,8.25,0,0,0,5.47,2.66c1.92,0,3.11-1.06,3.11-2.43,0-1.54-1.38-2.4-3.52-3.4l-1.57-.73c-3-1.41-4.89-3.46-4.89-6.27,0-3.94,3.52-6.31,7.48-6.31a11.73,11.73,0,0,1,7.39,3.14Z"/><path d="M1425.56,639.74h-10.92a3.48,3.48,0,0,0,6.31,1.44l4.32.45a7.81,7.81,0,1,1-7.39-10.81c4,0,7.68,2.62,7.68,8.76Zm-11-2.78h6.56a3.18,3.18,0,0,0-3.23-2.69A3.27,3.27,0,0,0,1414.55,637Z"/><path d="M1436.5,630.82a5.1,5.1,0,0,1,5.44,5.44v9.6h-4.16v-8.55a2.37,2.37,0,0,0-2.5-2.62,4.06,4.06,0,0,0-3.1,1.66v9.51H1428V631.2h4.06v.58c0,.51-.06,1.15-.06,1.15A5.75,5.75,0,0,1,1436.5,630.82Z"/><path d="M1456.15,644a5.37,5.37,0,0,1-4.58,2.24c-4,0-7.1-3.23-7.1-7.71s3-7.71,7.07-7.71a5.31,5.31,0,0,1,4.67,2.27c0-.48-.06-1.7-.06-2.79v-6.84h4.16v22.4h-4.16Zm-7.39-5.47a3.75,3.75,0,1,0,7.48,0,3.75,3.75,0,1,0-7.48,0Z"/><path d="M1317.67,564.38a5.32,5.32,0,0,1-3.2,4.86,5.82,5.82,0,0,1,3.68,5.38c0,4.09-3.17,6.62-7.74,6.62s-7.75-2.53-7.75-6.62a5.81,5.81,0,0,1,3.68-5.38,5.3,5.3,0,0,1-3.23-4.86c0-3.65,2.85-6.31,7.3-6.31S1317.67,560.73,1317.67,564.38Zm-4,10a3.28,3.28,0,1,0-3.26,3.17A3.08,3.08,0,0,0,1313.67,574.39Zm-.38-9.69a2.9,2.9,0,1,0-2.88,3A2.69,2.69,0,0,0,1313.29,564.7Z"/><path d="M1335.46,569.62c0,8-3.1,11.62-7.8,11.62s-7.84-3.65-7.84-11.62,3.1-11.55,7.84-11.55S1335.46,561.79,1335.46,569.62Zm-7.8,7.52c2.2,0,3.26-2.52,3.26-7.52s-1.06-7.48-3.26-7.48-3.27,2.56-3.27,7.48S1325.42,577.14,1327.66,577.14Z"/><path d="M1344.78,577.56c2.14,0,2.94-1.66,2.94-3.87s-.87-3.9-3-3.9a3.63,3.63,0,0,0-2.56,1l-3.74-.41V558.46h13.15v3.84h-9.25v4.64h.16a6,6,0,0,1,3.2-.83c4.26,0,6.69,3,6.69,7.32,0,4.55-2.59,7.81-7.46,7.81s-7.45-2.85-7.45-6.78v-1H1342v1C1342,576,1342.7,577.56,1344.78,577.56Z"/><path d="M1354.15,570.52h6.72V574h-6.72Z"/><path d="M1370,577.56c2.15,0,3-1.66,3-3.87s-.87-3.9-3-3.9a3.63,3.63,0,0,0-2.56,1l-3.74-.41V558.46h13.15v3.84h-9.25v4.64h.16a6,6,0,0,1,3.2-.83c4.25,0,6.69,3,6.69,7.32,0,4.55-2.6,7.81-7.46,7.81s-7.45-2.85-7.45-6.78v-1h4.54v1C1367.24,576,1367.94,577.56,1370,577.56Z"/><path d="M1380,577s3.78-3.33,6.62-6,3.43-4.29,3.43-6.11a2.8,2.8,0,0,0-3-2.88,2.69,2.69,0,0,0-3,2.66,5.71,5.71,0,0,0,.57,2.33l-4.09.74a7,7,0,0,1-.84-3.46c0-3.13,2.63-6.21,7.39-6.21s7.49,3.2,7.49,6.6c0,2.65-.86,5.21-6.33,10l-2.66,2.34H1395v3.84H1380Z"/><path d="M1406.47,571.58a4.6,4.6,0,0,1-3,.92c-3.43,0-6.76-2.24-6.76-7,0-4.48,3.11-7.43,7.62-7.43a7.52,7.52,0,0,1,7.9,7.94c0,6.46-4.83,11.65-7.45,14.17l-.71.68h-5.88l.44-.39a45.5,45.5,0,0,0,8-8.83Zm-2-9.89c-2.15,0-3.23,1.66-3.23,3.61s1.08,3.68,3.23,3.68,3.29-1.69,3.29-3.68S1406.7,561.69,1404.49,561.69Z"/><path d="M1413.9,570.52h6.72V574h-6.72Z"/><path d="M1422.25,574.46v-1h4.54v1c0,1.6.71,3.14,2.82,3.14s2.94-1.5,2.94-3.55a3.34,3.34,0,0,0-3.61-3.59,12.1,12.1,0,0,0-2.34.23v-4l5.12-4.38h-8.42v-3.84h13.44v4.25l-5.79,4.64a6.41,6.41,0,0,1,6.24,6.59c0,4.29-3,7.3-7.49,7.3C1424.94,581.24,1422.25,578.39,1422.25,574.46Z"/><path d="M1445.29,567.74a4.57,4.57,0,0,1,3-.93c3.43,0,6.75,2.24,6.75,7,0,4.48-3.1,7.42-7.61,7.42-4.77,0-7.9-3.26-7.9-7.94,0-6.46,4.83-11.64,7.45-14.17l.71-.67h5.88l-.45.38a45.51,45.51,0,0,0-8,8.83Zm2,9.88c2.15,0,3.23-1.66,3.23-3.61s-1.08-3.68-3.23-3.68S1444,572,1444,574,1445.06,577.62,1447.27,577.62Z"/><path d="M1472.2,569.62c0,8-3.11,11.62-7.81,11.62s-7.84-3.65-7.84-11.62,3.11-11.55,7.84-11.55S1472.2,561.79,1472.2,569.62Zm-7.81,7.52c2.21,0,3.27-2.52,3.27-7.52s-1.06-7.48-3.27-7.48-3.26,2.56-3.26,7.48S1462.15,577.14,1464.39,577.14Z"/><path d="M1474.28,577s3.78-3.33,6.62-6,3.43-4.29,3.43-6.11a2.8,2.8,0,0,0-3-2.88,2.69,2.69,0,0,0-3,2.66A5.71,5.71,0,0,0,1479,567l-4.09.74a7,7,0,0,1-.84-3.46c0-3.13,2.63-6.21,7.4-6.21s7.48,3.2,7.48,6.6c0,2.65-.86,5.21-6.33,10l-2.66,2.34h9.28v3.84h-14.91Z"/><rect class="cls-8" x="2841" y="281" width="630" height="442"/><polygon class="cls-8" points="3545 841.82 2757 841.82 2841 723 3471 723 3545 841.82"/><rect class="cls-8" x="2757" y="841.82" width="788" height="34.18"/><polygon class="cls-11" points="3346 832.05 2967 832.05 2972 811.95 3340.93 811.95 3346 832.05"/><rect class="cls-4" x="2873" y="317" width="566" height="380"/><polygon class="cls-10" points="3451 801 2846 801 2884 736 3415 736 3451 801"/><line class="cls-11" x1="3148" y1="736" x2="3148" y2="801"/><line class="cls-11" x1="3316" y1="736" x2="3331" y2="801"/><line class="cls-11" x1="3267" y1="736" x2="3275" y2="801"/><line class="cls-11" x1="3208" y1="736" x2="3212" y2="801"/><line class="cls-11" x1="3365" y1="736" x2="3390" y2="801"/><line class="cls-11" x1="2982" y1="736" x2="2967" y2="801"/><line class="cls-11" x1="3031" y1="736" x2="3023" y2="801"/><line class="cls-11" x1="3090" y1="736" x2="3086" y2="801"/><line class="cls-11" x1="2933" y1="736" x2="2908" y2="801"/><line class="cls-11" x1="2879" y1="748" x2="3419" y2="748"/><line class="cls-11" x1="2869" y1="763" x2="3429" y2="763"/><line class="cls-11" x1="2859" y1="780" x2="3438" y2="780"/><rect class="cls-8" x="104" y="283" width="630" height="442"/><polygon class="cls-8" points="808 843.82 20 843.82 104 725 734 725 808 843.82"/><rect class="cls-9" x="137" y="313.17" width="565" height="381.66"/><rect class="cls-8" x="20" y="843.82" width="788" height="34.18"/><polygon class="cls-10" points="721 805 116 805 154 740 685 740 721 805"/><line class="cls-11" x1="418" y1="740" x2="418" y2="805"/><line class="cls-11" x1="586" y1="740" x2="601" y2="805"/><line class="cls-11" x1="537" y1="740" x2="545" y2="805"/><line class="cls-11" x1="478" y1="740" x2="482" y2="805"/><line class="cls-11" x1="635" y1="740" x2="660" y2="805"/><line class="cls-11" x1="252" y1="740" x2="237" y2="805"/><line class="cls-11" x1="301" y1="740" x2="293" y2="805"/><line class="cls-11" x1="360" y1="740" x2="356" y2="805"/><line class="cls-11" x1="203" y1="740" x2="178" y2="805"/><line class="cls-11" x1="149" y1="752" x2="689" y2="752"/><line class="cls-11" x1="139" y1="767" x2="699" y2="767"/><line class="cls-11" x1="129" y1="784" x2="708" y2="784"/><polygon class="cls-11" points="609 834.05 230 834.05 235 813.95 603.93 813.95 609 834.05"/><circle class="cls-14" cx="430.88" cy="405.37" r="66.12"/><g class="cls-15"><polygon class="cls-16" points="447.37 450.09 416.07 449.56 417.19 437.36 418.33 427.29 444.59 426.93 446.18 437.45 447.37 450.09"/><path class="cls-17" d="M454.07,505.26H412.66V442.14a69.69,69.69,0,0,0,19.71,3.43,80.93,80.93,0,0,0,21.7-3.43Z"/><path class="cls-17" d="M454.07,507.37H412.66V447.32s9.94,3.73,19.71,3.73a75.09,75.09,0,0,0,21.7-3.73Z"/><path class="cls-16" d="M455.18,389.35a7.24,7.24,0,0,1,7.52-.8c3,1.43,3.31,4.65,1.88,8.25,0,0,3.29,10.29-4.88,10.29-7.83,0-6.28-4.77-6.28-4.77"/><path class="cls-18" d="M456.67,403.57s-.29-2.09,1.42-2.31a2.1,2.1,0,0,1,2.22,1.74s2.78-.25,2-4.25"/><path class="cls-18" d="M457.12,391.54s6.08-1.93,5.06,4.1"/><line class="cls-18" x1="459.78" y1="394.62" x2="457.58" y2="399.41"/><path class="cls-16" d="M408.7,388.4a7.24,7.24,0,0,0-7.48-1.08c-3,1.32-3.49,4.53-2.2,8.18,0,0-3.67,10.16,4.49,10.46,7.83.3,6.46-4.53,6.46-4.53"/><path class="cls-18" d="M406.67,402.56s.37-2.08-1.33-2.36a2.08,2.08,0,0,0-2.28,1.65s-2.77-.36-1.85-4.32"/><path class="cls-18" d="M406.68,390.52s-6-2.15-5.22,3.91"/><line class="cls-18" x1="403.9" y1="393.49" x2="405.92" y2="398.37"/><path class="cls-16" d="M458.56,388.48c-1.06-1.48-.43-3.43.59-8.28a17.47,17.47,0,0,0-.39-10.47c-2-6.2-10.66-14.34-25.78-14.54-17.83-.23-26.6,11.49-27.57,16.91-.65,3.64-.2,4.7,0,7.9.2,2.7,1.18,6.53.16,7.71-2.32,2.68-2.67,6-2.76,8.83-.23,7.66,4.5,13.83,4.5,13.83l.81,9.17s.07,10.88,10,13.14c.85,1.59,3.2,3.66,9.68,3.78l6.77.13c6.63.12,9-2,9.87-3.53,9.51-2,10.18-12.94,10.18-12.94l1-8.84a24.4,24.4,0,0,0,5-12.55C460.84,395.61,461,391.82,458.56,388.48Z"/><path class="cls-18" d="M429.81,397.64s-9.3,9.1-5.92,14.15c1.46,2.16,5,0,5,0a4.15,4.15,0,0,0,5.42.1s2.41,1.44,4.28-.31"/><path class="cls-18" d="M422.48,420.24a13,13,0,0,0,18.36.35"/><path class="cls-19" d="M405.62,387.71c1-1.18,0-5-.16-7.71-.25-3.2-.7-4.26,0-7.9,1-5.42,9.74-17.14,27.57-16.91,15.12.2,23.76,8.34,25.78,14.54a17.47,17.47,0,0,1,.39,10.47l-1.07,5.91s-10.08-5.91-10-15.41l-31,.19s-.48,6.62-2.61,10.18C412.55,384.34,405.62,387.71,405.62,387.71Z"/><path class="cls-18" d="M451.76,396.82a7.92,7.92,0,0,0-15.83,0"/><circle class="cls-20" cx="443.61" cy="396" r="2.12"/><path class="cls-18" d="M427.2,396.82a7.91,7.91,0,1,0-15.82,0"/><circle class="cls-20" cx="419.06" cy="396" r="2.12"/><path class="cls-18" d="M412.32,383.89a20.87,20.87,0,0,1,6.88-1,26.61,26.61,0,0,1,6.88,1"/><path class="cls-18" d="M436.64,383.89a20.87,20.87,0,0,1,6.88-1,26.51,26.51,0,0,1,6.88,1"/><path class="cls-21" d="M409.34,437.57c-21.32,0-29.25,5.95-32.11,14.21-3.65,10.54-6.7,21-6.7,21l-8.64,33,143.3-.79-9.28-34s-4.33-13.09-6.3-17.53c-3.28-7.4-6.75-15.94-28.08-15.94H446.16l-2.3,67.51H423.58l-6.41-67.53Z"/><polyline class="cls-21" points="452.49 437.36 462.21 454.87 454.61 467.77 462.39 479.62 450.37 504.9"/><polyline class="cls-21" points="411.65 437.36 401.93 454.87 409.53 467.77 401.75 479.62 413.77 504.9"/></g><circle class="cls-22" cx="430.88" cy="405.37" r="66.12"/><rect class="cls-12" x="260" y="491.81" width="330" height="42.19"/><rect class="cls-12" x="260" y="553" width="330" height="42"/><rect class="cls-13" x="357" y="616" width="136" height="45"/><path d="M386.24,647.86v-22.4h4.45v18.59h9.51v3.81Z"/><path d="M401.44,640.53a7.84,7.84,0,1,1,7.84,7.71A7.63,7.63,0,0,1,401.44,640.53Zm4.16,0a3.68,3.68,0,1,0,3.68-4A3.73,3.73,0,0,0,405.6,640.53Z"/><path d="M434.63,633.2v15.74c0,2.31-1.15,4.52-4.71,4.52h-6.36v-3.52h5.34c.74,0,1.57-.2,1.57-1.32v-2.81a5.4,5.4,0,0,1-4.55,2.21c-4,0-7-3-7-7.59s3-7.61,7-7.61a5.29,5.29,0,0,1,4.64,2.27c0-.16-.06-.45-.06-1.22v-.67Zm-7.78,11.23a3.67,3.67,0,0,0,3.71-4c0-2.4-1.5-4-3.71-4s-3.68,1.63-3.68,4A3.67,3.67,0,0,0,426.85,644.43Z"/><path d="M443.24,647.86h-4.16V636.72H437V633.2h6.21ZM441,625.46a2.68,2.68,0,0,1,2.69,2.69,2.67,2.67,0,0,1-5.34,0A2.67,2.67,0,0,1,441,625.46Z"/><path d="M455.3,632.82a5.1,5.1,0,0,1,5.44,5.44v9.6h-4.16v-8.55a2.37,2.37,0,0,0-2.5-2.62,4.06,4.06,0,0,0-3.1,1.66v9.51h-4.16V633.2h4.06v.58c0,.51-.06,1.15-.06,1.15A5.75,5.75,0,0,1,455.3,632.82Z"/><path d="M284.29,515V500.46h4.36v15c0,4.35-2.85,7.81-8.39,7.81s-8.35-3.46-8.35-7.81v-15h4.45V515c0,2.43,1.34,4.12,4,4.12S284.29,517.45,284.29,515Z"/><path d="M300.74,512.68a5.32,5.32,0,0,0-3.61-1.5c-1.09,0-1.48.54-1.48,1s.32.86,1.09,1.12l2.43.77c3,1,4,2.62,4,4.54,0,2.14-1.83,4.64-5.83,4.64a9.46,9.46,0,0,1-6.46-2.3l2.21-2.88a7.23,7.23,0,0,0,4.32,1.82c1,0,1.6-.51,1.6-1.09s-.48-1-1.67-1.41l-2.49-.73a4.35,4.35,0,0,1-3.4-4.29c0-2.4,2.18-4.54,5.7-4.54a8.73,8.73,0,0,1,5.92,2.17Z"/><path d="M320.23,516.74H309.32a3.47,3.47,0,0,0,6.3,1.44l4.32.45a7.81,7.81,0,1,1-7.39-10.81c4,0,7.68,2.62,7.68,8.76Zm-11-2.78h6.56a3.18,3.18,0,0,0-3.23-2.69A3.27,3.27,0,0,0,309.22,514Z"/><path d="M331.69,512.3h-1.76c-2.12,0-3.08,1-3.08,3.55v7h-4.16V508.2h4v2.34a3.85,3.85,0,0,1,3.8-2.53,4.59,4.59,0,0,1,1.16.13Z"/><path d="M342.5,507.82a5.1,5.1,0,0,1,5.44,5.44v9.6h-4.16v-8.55a2.36,2.36,0,0,0-2.49-2.62,4.07,4.07,0,0,0-3.11,1.66v9.51H334V508.2h4.07v.58c0,.51-.07,1.15-.07,1.15A5.76,5.76,0,0,1,342.5,507.82Z"/><path d="M359.49,513.1c0-1.06-.83-1.73-2.43-1.73a9.91,9.91,0,0,0-4.41,1.37L351,509.61a12.56,12.56,0,0,1,6.28-1.79c3.32,0,6.36,1.53,6.36,5.4v9.64h-4.16v-1.38a4.93,4.93,0,0,1-4.09,1.76,4.8,4.8,0,0,1-5.12-4.61c0-2.78,2.05-4.51,5.31-4.51h2.88c.7,0,1-.32,1-.86Zm0,4.51v-1.06a1.77,1.77,0,0,1-1.28.32h-1.56c-1.32,0-2.08.58-2.08,1.6s.8,1.73,2.08,1.73A2.53,2.53,0,0,0,359.49,517.61Z"/><path d="M386.34,514.25a2.32,2.32,0,0,0-2.43-2.56,4,4,0,0,0-3,1.66v9.51h-4.16v-8.61a2.32,2.32,0,0,0-2.43-2.56,4,4,0,0,0-3,1.66v9.51h-4.16V508.2h4.06v.58c0,.51-.06,1.15-.06,1.15a5.66,5.66,0,0,1,4.38-2.11,4.91,4.91,0,0,1,4.71,2.65,5.88,5.88,0,0,1,4.92-2.65,5.08,5.08,0,0,1,5.41,5.44v9.6h-4.16Z"/><path d="M408.29,516.74H397.38a3.48,3.48,0,0,0,6.31,1.44l4.32.45a7.81,7.81,0,1,1-7.4-10.81c4,0,7.68,2.62,7.68,8.76Zm-11-2.78h6.56a3.2,3.2,0,0,0-3.24-2.69A3.26,3.26,0,0,0,397.29,514Z"/><path d="M284.74,576.93a1.86,1.86,0,0,1-1.82,1.89c-1,0-2.53-1.32-3.78-2.44a13.43,13.43,0,0,1,.8,3.14,2,2,0,1,1-3.93,0,13.43,13.43,0,0,1,.8-3.14c-1.25,1.12-2.79,2.44-3.78,2.44a1.86,1.86,0,0,1-1.82-1.89c0-1.73,2.46-2.11,4.22-2.53-1.76-.41-4.22-.8-4.22-2.53A1.85,1.85,0,0,1,273,570c1,0,2.53,1.31,3.78,2.43a13.19,13.19,0,0,1-.8-3.14,2,2,0,1,1,3.93,0,13.19,13.19,0,0,1-.8,3.14c1.25-1.12,2.79-2.43,3.78-2.43a1.85,1.85,0,0,1,1.82,1.88c0,1.73-2.46,2.12-4.22,2.53C282.28,574.82,284.74,575.2,284.74,576.93ZM278,576a1.63,1.63,0,1,0-1.63-1.63A1.64,1.64,0,0,0,278,576Z"/><path d="M301.16,576.93a1.86,1.86,0,0,1-1.83,1.89c-1,0-2.52-1.32-3.77-2.44a13.43,13.43,0,0,1,.8,3.14,2,2,0,1,1-3.94,0,13.94,13.94,0,0,1,.8-3.14c-1.24,1.12-2.78,2.44-3.77,2.44a1.86,1.86,0,0,1-1.83-1.89c0-1.73,2.47-2.11,4.23-2.53-1.76-.41-4.23-.8-4.23-2.53a1.85,1.85,0,0,1,1.83-1.88c1,0,2.53,1.31,3.77,2.43a13.68,13.68,0,0,1-.8-3.14,2,2,0,1,1,3.94,0,13.19,13.19,0,0,1-.8,3.14c1.25-1.12,2.78-2.43,3.77-2.43a1.85,1.85,0,0,1,1.83,1.88c0,1.73-2.47,2.12-4.23,2.53C298.69,574.82,301.16,575.2,301.16,576.93Zm-6.78-.9a1.63,1.63,0,1,0-1.64-1.63A1.64,1.64,0,0,0,294.38,576Z"/><path d="M317.57,576.93a1.86,1.86,0,0,1-1.82,1.89c-1,0-2.53-1.32-3.78-2.44a13.43,13.43,0,0,1,.8,3.14,2,2,0,1,1-3.93,0,13.43,13.43,0,0,1,.8-3.14c-1.25,1.12-2.78,2.44-3.78,2.44a1.86,1.86,0,0,1-1.82-1.89c0-1.73,2.46-2.11,4.22-2.53-1.76-.41-4.22-.8-4.22-2.53a1.85,1.85,0,0,1,1.82-1.88c1,0,2.53,1.31,3.78,2.43a13.19,13.19,0,0,1-.8-3.14,2,2,0,1,1,3.93,0,13.19,13.19,0,0,1-.8,3.14c1.25-1.12,2.79-2.43,3.78-2.43a1.85,1.85,0,0,1,1.82,1.88c0,1.73-2.46,2.12-4.22,2.53C315.11,574.82,317.57,575.2,317.57,576.93Zm-6.78-.9a1.63,1.63,0,1,0-1.63-1.63A1.65,1.65,0,0,0,310.79,576Z"/><path d="M334,576.93a1.86,1.86,0,0,1-1.82,1.89c-1,0-2.53-1.32-3.78-2.44a13.43,13.43,0,0,1,.8,3.14,2,2,0,1,1-3.94,0,13.94,13.94,0,0,1,.8-3.14c-1.24,1.12-2.78,2.44-3.77,2.44a1.86,1.86,0,0,1-1.82-1.89c0-1.73,2.46-2.11,4.22-2.53-1.76-.41-4.22-.8-4.22-2.53a1.85,1.85,0,0,1,1.82-1.88c1,0,2.53,1.31,3.77,2.43a13.68,13.68,0,0,1-.8-3.14,2,2,0,1,1,3.94,0,13.19,13.19,0,0,1-.8,3.14c1.25-1.12,2.78-2.43,3.78-2.43a1.85,1.85,0,0,1,1.82,1.88c0,1.73-2.46,2.12-4.22,2.53C331.53,574.82,334,575.2,334,576.93Zm-6.78-.9a1.63,1.63,0,1,0-1.63-1.63A1.64,1.64,0,0,0,327.21,576Z"/><path d="M350.41,576.93a1.86,1.86,0,0,1-1.83,1.89c-1,0-2.53-1.32-3.77-2.44a13.94,13.94,0,0,1,.8,3.14,2,2,0,1,1-3.94,0,13.43,13.43,0,0,1,.8-3.14c-1.25,1.12-2.78,2.44-3.77,2.44a1.86,1.86,0,0,1-1.83-1.89c0-1.73,2.46-2.11,4.23-2.53-1.77-.41-4.23-.8-4.23-2.53A1.85,1.85,0,0,1,338.7,570c1,0,2.52,1.31,3.77,2.43a13.19,13.19,0,0,1-.8-3.14,2,2,0,1,1,3.94,0,13.68,13.68,0,0,1-.8,3.14c1.24-1.12,2.78-2.43,3.77-2.43a1.85,1.85,0,0,1,1.83,1.88c0,1.73-2.47,2.12-4.23,2.53C347.94,574.82,350.41,575.2,350.41,576.93Zm-6.79-.9A1.63,1.63,0,1,0,342,574.4,1.65,1.65,0,0,0,343.62,576Z"/><path d="M366.82,576.93a1.86,1.86,0,0,1-1.82,1.89c-1,0-2.53-1.32-3.78-2.44a13.43,13.43,0,0,1,.8,3.14,2,2,0,1,1-3.93,0,13.43,13.43,0,0,1,.8-3.14c-1.25,1.12-2.79,2.44-3.78,2.44a1.86,1.86,0,0,1-1.82-1.89c0-1.73,2.46-2.11,4.22-2.53-1.76-.41-4.22-.8-4.22-2.53a1.85,1.85,0,0,1,1.82-1.88c1,0,2.53,1.31,3.78,2.43a13.19,13.19,0,0,1-.8-3.14,2,2,0,1,1,3.93,0,13.19,13.19,0,0,1-.8,3.14C362.47,571.3,364,570,365,570a1.85,1.85,0,0,1,1.82,1.88c0,1.73-2.46,2.12-4.22,2.53C364.36,574.82,366.82,575.2,366.82,576.93ZM360,576a1.63,1.63,0,1,0-1.63-1.63A1.64,1.64,0,0,0,360,576Z"/><path d="M383.24,576.93a1.86,1.86,0,0,1-1.82,1.89c-1,0-2.53-1.32-3.78-2.44a13.43,13.43,0,0,1,.8,3.14,2,2,0,1,1-3.94,0,13.94,13.94,0,0,1,.8-3.14c-1.24,1.12-2.78,2.44-3.77,2.44a1.86,1.86,0,0,1-1.83-1.89c0-1.73,2.47-2.11,4.23-2.53-1.76-.41-4.23-.8-4.23-2.53a1.85,1.85,0,0,1,1.83-1.88c1,0,2.53,1.31,3.77,2.43a13.68,13.68,0,0,1-.8-3.14,2,2,0,1,1,3.94,0,13.19,13.19,0,0,1-.8,3.14c1.25-1.12,2.78-2.43,3.78-2.43a1.85,1.85,0,0,1,1.82,1.88c0,1.73-2.47,2.12-4.23,2.53C380.77,574.82,383.24,575.2,383.24,576.93Zm-6.78-.9a1.63,1.63,0,1,0-1.64-1.63A1.64,1.64,0,0,0,376.46,576Z"/><path d="M399.65,576.93a1.86,1.86,0,0,1-1.82,1.89c-1,0-2.53-1.32-3.78-2.44a13.43,13.43,0,0,1,.8,3.14,2,2,0,1,1-3.93,0,13.43,13.43,0,0,1,.8-3.14c-1.25,1.12-2.78,2.44-3.78,2.44a1.86,1.86,0,0,1-1.82-1.89c0-1.73,2.46-2.11,4.22-2.53-1.76-.41-4.22-.8-4.22-2.53a1.85,1.85,0,0,1,1.82-1.88c1,0,2.53,1.31,3.78,2.43a13.19,13.19,0,0,1-.8-3.14,2,2,0,1,1,3.93,0,13.19,13.19,0,0,1-.8,3.14c1.25-1.12,2.79-2.43,3.78-2.43a1.85,1.85,0,0,1,1.82,1.88c0,1.73-2.46,2.12-4.22,2.53C397.19,574.82,399.65,575.2,399.65,576.93Zm-6.78-.9a1.63,1.63,0,1,0-1.63-1.63A1.65,1.65,0,0,0,392.87,576Z"/><path class="cls-8" d="M2267.71,466.2a6.3,6.3,0,0,1-6.3-6.3v-24a34,34,0,0,1,68,0v22.72a6.3,6.3,0,0,1-12.6,0V435.94a21.38,21.38,0,1,0-42.75,0v24A6.3,6.3,0,0,1,2267.71,466.2Z"/><path class="cls-8" d="M2318.84,522h-49.57c-8.17,0-15-5.29-15.84-12.24l-5.19-44.16c-.95-8,6.42-15,15.84-15h61c9.55,0,17,7.13,15.8,15.22l-6.23,44.17C2333.68,516.89,2326.9,522,2318.84,522Z"/><path class="cls-23" d="M2306.26,481.27a11.72,11.72,0,1,0-18.46,9.57v11.43a6.75,6.75,0,0,0,13.5,0V490.84A11.69,11.69,0,0,0,2306.26,481.27Z"/><path class="cls-8" d="M1398.71,418.2a6.3,6.3,0,0,1-6.3-6.3v-24a34,34,0,0,1,67.95,0v22.72a6.3,6.3,0,0,1-12.6,0V387.94a21.38,21.38,0,1,0-42.75,0v24A6.3,6.3,0,0,1,1398.71,418.2Z"/><path class="cls-8" d="M1449.84,474h-49.57c-8.17,0-15-5.29-15.84-12.24l-5.19-44.16c-1-8,6.42-15,15.84-15h61c9.55,0,17,7.13,15.8,15.22l-6.23,44.17C1464.68,468.89,1457.9,474,1449.84,474Z"/><path class="cls-23" d="M1437.26,433.27a11.72,11.72,0,1,0-18.46,9.57v11.43a6.75,6.75,0,0,0,13.5,0V442.84A11.69,11.69,0,0,0,1437.26,433.27Z"/><path class="cls-8" d="M3173.76,383.94a21.38,21.38,0,1,0-42.75,0v24a6.3,6.3,0,0,1-12.6,0v-24a34,34,0,0,1,68,0Z"/><path class="cls-8" d="M3175.84,470h-49.57c-8.17,0-15-5.29-15.84-12.24l-5.19-44.16c-.95-8,6.42-15,15.84-15h61c9.55,0,17,7.13,15.8,15.22l-6.23,44.17C3190.68,464.89,3183.9,470,3175.84,470Z"/><path class="cls-23" d="M3163.26,429.27a11.72,11.72,0,1,0-18.46,9.57v11.43a6.75,6.75,0,0,0,13.5,0V438.84A11.69,11.69,0,0,0,3163.26,429.27Z"/><path d="M1298.08,500.3h-12.23v5.24H1293v3.81h-7.14v5.7h12.23v3.81h-16.67v-22.4h16.67Z"/><path d="M1309.15,503.82a5.1,5.1,0,0,1,5.44,5.44v9.6h-4.16v-8.55a2.37,2.37,0,0,0-2.5-2.62,4.06,4.06,0,0,0-3.1,1.66v9.51h-4.16V504.2h4.06v.58c0,.51-.06,1.15-.06,1.15A5.75,5.75,0,0,1,1309.15,503.82Z"/><path d="M1323.26,498.63v5.57h3.17v3.52h-3.17v6.62c0,.93.74,1.06,1.38,1.06a18.8,18.8,0,0,0,1.92-.1v3.56s-2,.19-3.23.19c-2.08,0-4.23-.35-4.23-3.3v-8h-2.3V504.2h2.3v-5.57Z"/><path d="M1343.68,512.74h-10.91a3.47,3.47,0,0,0,6.3,1.44l4.32.45a7.81,7.81,0,1,1-7.39-10.81c4,0,7.68,2.62,7.68,8.76Zm-11-2.78h6.56a3.18,3.18,0,0,0-3.23-2.69A3.27,3.27,0,0,0,1332.67,510Z"/><path d="M1355.13,508.3h-1.76c-2.11,0-3.07,1-3.07,3.55v7h-4.16V504.2h4v2.34A3.87,3.87,0,0,1,1354,504a4.46,4.46,0,0,1,1.15.13Z"/><path d="M1368.25,518.86h-4.41v-22.4h7.58c5.28,0,8.07,3.29,8.07,7.36s-2.79,7.45-8.07,7.45h-3.17Zm0-18.56v7.16h2.5c2.43,0,4.19-1.15,4.19-3.64s-1.76-3.52-4.19-3.52Z"/><path d="M1390.4,503.82a5.1,5.1,0,0,1,5.44,5.44v9.6h-4.16v-8.55a2.37,2.37,0,0,0-2.5-2.62,4.06,4.06,0,0,0-3.1,1.66v9.51h-4.16v-22.4H1386v8.32c0,.51-.06,1.15-.06,1.15A5.73,5.73,0,0,1,1390.4,503.82Z"/><path d="M1398.33,511.53a7.84,7.84,0,1,1,7.84,7.71A7.63,7.63,0,0,1,1398.33,511.53Zm4.16,0a3.68,3.68,0,1,0,3.68-4A3.73,3.73,0,0,0,1402.49,511.53Z"/><path d="M1425.15,503.82a5.1,5.1,0,0,1,5.44,5.44v9.6h-4.16v-8.55a2.37,2.37,0,0,0-2.5-2.62,4.06,4.06,0,0,0-3.1,1.66v9.51h-4.16V504.2h4.06v.58c0,.51-.06,1.15-.06,1.15A5.75,5.75,0,0,1,1425.15,503.82Z"/><path d="M1448.38,512.74h-10.91a3.47,3.47,0,0,0,6.3,1.44l4.32.45a7.8,7.8,0,1,1-7.39-10.81c4,0,7.68,2.62,7.68,8.76Zm-11-2.78h6.56a3.18,3.18,0,0,0-3.23-2.69A3.27,3.27,0,0,0,1437.37,510Z"/><path d="M1462.17,518.86h-4.38v-22.4h5.86l7.55,14.91V496.46h4.38v22.4h-5.41l-8-15.56Z"/><path d="M1479.49,513.48V504.2h4.16v8.51a2.82,2.82,0,1,0,5.63,0V504.2h4.13v9.28c0,3.07-2.44,5.76-7,5.76S1479.49,516.55,1479.49,513.48Z"/><path d="M1516,510.25a2.32,2.32,0,0,0-2.43-2.56,4,4,0,0,0-3,1.66v9.51h-4.16v-8.61a2.32,2.32,0,0,0-2.44-2.56,4,4,0,0,0-3,1.66v9.51h-4.15V504.2h4.06v.58c0,.51-.06,1.15-.06,1.15a5.64,5.64,0,0,1,4.38-2.11,4.89,4.89,0,0,1,4.7,2.65,5.9,5.9,0,0,1,4.93-2.65,5.08,5.08,0,0,1,5.41,5.44v9.6H1516Z"/><path d="M1527.77,518.86h-4.16v-22.4h4.16v7.23c0,1-.06,2-.06,2.4a5.25,5.25,0,0,1,4.64-2.27c4,0,7.1,3.23,7.1,7.71s-3.1,7.71-7.13,7.71a5.28,5.28,0,0,1-4.55-2.24Zm-.09-7.33a3.75,3.75,0,1,0,7.48,0,3.75,3.75,0,1,0-7.48,0Z"/><path d="M1556.51,512.74H1545.6a3.47,3.47,0,0,0,6.3,1.44l4.32.45a7.81,7.81,0,1,1-7.39-10.81c4,0,7.68,2.62,7.68,8.76Zm-11-2.78h6.56a3.18,3.18,0,0,0-3.23-2.69A3.27,3.27,0,0,0,1545.5,510Z"/><path d="M1568,508.3h-1.76c-2.11,0-3.07,1-3.07,3.55v7H1559V504.2h4v2.34a3.87,3.87,0,0,1,3.81-2.53,4.46,4.46,0,0,1,1.15.13Z"/><path d="M2197.66,546.46v4H2191v18.43h-4.41V550.43h-6.69v-4Z"/><path d="M2210.94,562.74H2200a3.47,3.47,0,0,0,6.3,1.44l4.32.45a7.8,7.8,0,1,1-7.39-10.81c4,0,7.68,2.62,7.68,8.76Zm-11-2.78h6.56a3.18,3.18,0,0,0-3.23-2.69A3.27,3.27,0,0,0,2199.93,560Z"/><path d="M2232.67,560.25a2.32,2.32,0,0,0-2.43-2.56,4,4,0,0,0-3,1.66v9.51H2223v-8.61a2.32,2.32,0,0,0-2.44-2.56,4,4,0,0,0-3,1.66v9.51h-4.15V554.2h4.06v.58c0,.51-.06,1.15-.06,1.15a5.63,5.63,0,0,1,4.38-2.11,4.9,4.9,0,0,1,4.7,2.65,5.9,5.9,0,0,1,4.93-2.65,5.08,5.08,0,0,1,5.41,5.44v9.6h-4.16Z"/><path d="M2244.41,574.46h-4.16V554.2h4.16v.7c0,.71-.06,1-.06,1.19a5.25,5.25,0,0,1,4.64-2.27c4,0,7.1,3.23,7.1,7.71s-3.1,7.71-7.13,7.71a5.28,5.28,0,0,1-4.55-2.24Zm-.09-12.93a3.75,3.75,0,1,0,7.48,0,3.75,3.75,0,1,0-7.48,0Z"/><path d="M2257.85,561.53a7.84,7.84,0,1,1,7.84,7.71A7.63,7.63,0,0,1,2257.85,561.53Zm4.16,0a3.68,3.68,0,1,0,3.68-4A3.73,3.73,0,0,0,2262,561.53Z"/><path d="M2285.18,558.3h-1.76c-2.11,0-3.07,1-3.07,3.55v7h-4.16V554.2h4v2.34A3.86,3.86,0,0,1,2284,554a4.51,4.51,0,0,1,1.15.13Z"/><path d="M2295.52,559.1c0-1.06-.84-1.73-2.44-1.73a10,10,0,0,0-4.41,1.37l-1.63-3.13a12.55,12.55,0,0,1,6.27-1.79c3.33,0,6.37,1.53,6.37,5.4v9.64h-4.16v-1.38a5,5,0,0,1-4.1,1.76,4.81,4.81,0,0,1-5.12-4.61c0-2.78,2-4.51,5.31-4.51h2.88c.71,0,1-.32,1-.86Zm0,4.51v-1.06a1.8,1.8,0,0,1-1.28.32h-1.57c-1.31,0-2.08.58-2.08,1.6s.8,1.73,2.08,1.73A2.54,2.54,0,0,0,2295.52,563.61Z"/><path d="M2312.09,558.3h-1.76c-2.11,0-3.07,1-3.07,3.55v7h-4.16V554.2h4v2.34a3.87,3.87,0,0,1,3.81-2.53,4.51,4.51,0,0,1,1.15.13Z"/><path d="M2319.07,568.86H2318l-5-14.66h4.64l3.1,10.43,3.14-10.43h4.51l-5.86,17c-.73,2.14-1.88,3.3-4.57,3.3h-2.88V571h2a1.53,1.53,0,0,0,1.63-1.15Z"/><path d="M2347.07,565.14a6,6,0,0,0,6.08-4.25H2358a11,11,0,0,1-11,8.35,11.59,11.59,0,1,1,0-23.17,11,11,0,0,1,11,8.35h-4.89a6,6,0,0,0-6.08-4.25c-4.23,0-7,3.2-7,7.49S2342.84,565.14,2347.07,565.14Z"/><path d="M2359.68,561.53a7.84,7.84,0,1,1,7.84,7.71A7.62,7.62,0,0,1,2359.68,561.53Zm4.16,0a3.67,3.67,0,1,0,3.68-4A3.72,3.72,0,0,0,2363.84,561.53Z"/><path d="M2388.8,567a5.37,5.37,0,0,1-4.58,2.24c-4,0-7.1-3.23-7.1-7.71s3-7.71,7.07-7.71a5.32,5.32,0,0,1,4.67,2.27c0-.48-.06-1.7-.06-2.79v-6.84H2393v22.4h-4.16Zm-7.4-5.47a3.76,3.76,0,1,0,7.49,0,3.75,3.75,0,1,0-7.49,0Z"/><path d="M2410.91,562.74H2400a3.47,3.47,0,0,0,6.3,1.44l4.32.45a7.81,7.81,0,1,1-7.39-10.81c4,0,7.68,2.62,7.68,8.76Zm-11-2.78h6.56a3.18,3.18,0,0,0-3.23-2.69A3.27,3.27,0,0,0,2399.9,560Z"/><path d="M2252.92,631.42l7.56-13h5.69v13H2269v3.68h-2.82v5.73h-4.32v-5.73h-8.93Zm3.84,0h5.09v-8.51h-.16Z"/><path d="M2270.91,637s3.77-3.33,6.62-6,3.43-4.29,3.43-6.11a2.8,2.8,0,0,0-3-2.88,2.7,2.7,0,0,0-3,2.66,5.75,5.75,0,0,0,.58,2.33l-4.1.74a7.13,7.13,0,0,1-.83-3.46c0-3.13,2.63-6.21,7.39-6.21s7.49,3.2,7.49,6.6c0,2.65-.86,5.21-6.33,10l-2.66,2.34h9.28v3.84h-14.91Z"/><path d="M2302.78,624.38a5.32,5.32,0,0,1-3.2,4.86,5.82,5.82,0,0,1,3.68,5.38c0,4.09-3.17,6.62-7.74,6.62s-7.75-2.53-7.75-6.62a5.81,5.81,0,0,1,3.68-5.38,5.3,5.3,0,0,1-3.23-4.86c0-3.65,2.85-6.31,7.3-6.31S2302.78,620.73,2302.78,624.38Zm-4,10a3.28,3.28,0,1,0-3.26,3.17A3.08,3.08,0,0,0,2298.78,634.39Zm-.38-9.69a2.9,2.9,0,1,0-2.88,3A2.69,2.69,0,0,0,2298.4,624.7Z"/><path d="M2305.41,637s3.77-3.33,6.62-6,3.42-4.29,3.42-6.11a2.79,2.79,0,0,0-3-2.88,2.7,2.7,0,0,0-3,2.66,5.75,5.75,0,0,0,.58,2.33l-4.1.74a7.13,7.13,0,0,1-.83-3.46c0-3.13,2.62-6.21,7.39-6.21s7.49,3.2,7.49,6.6c0,2.65-.87,5.21-6.34,10L2311,637h9.28v3.84h-14.91Z"/><path d="M2321.92,631.42l7.55-13h5.69v13H2338v3.68h-2.82v5.73h-4.32v-5.73h-8.92Zm3.84,0h5.08v-8.51h-.16Z"/><rect class="cls-12" x="3052" y="557" width="206" height="46"/><path d="M3096.68,509.3h-12.22v5.24h7.14v3.81h-7.14v5.7h12.22v3.81H3080v-22.4h16.67Z"/><path d="M3107.76,512.82a5.11,5.11,0,0,1,5.44,5.44v9.6H3109v-8.55a2.37,2.37,0,0,0-2.5-2.62,4,4,0,0,0-3.1,1.66v9.51h-4.16V513.2h4.06v.58c0,.51-.06,1.15-.06,1.15A5.75,5.75,0,0,1,3107.76,512.82Z"/><path d="M3121.87,507.63v5.57H3125v3.52h-3.17v6.62c0,.93.73,1.06,1.37,1.06a18.55,18.55,0,0,0,1.92-.1v3.56s-2,.19-3.23.19c-2.08,0-4.22-.35-4.22-3.3v-8h-2.31V513.2h2.31v-5.57Z"/><path d="M3142.28,521.74h-10.91a3.48,3.48,0,0,0,6.31,1.44l4.32.45a7.81,7.81,0,1,1-7.4-10.81c4,0,7.68,2.62,7.68,8.76Zm-11-2.78h6.56a3.2,3.2,0,0,0-3.24-2.69A3.26,3.26,0,0,0,3131.28,519Z"/><path d="M3153.74,517.3H3152c-2.11,0-3.07,1-3.07,3.55v7h-4.16V513.2h4v2.34a3.85,3.85,0,0,1,3.81-2.53,4.56,4.56,0,0,1,1.15.13Z"/><path d="M3172.81,524.14a6,6,0,0,0,6.08-4.25h4.9a11,11,0,0,1-11,8.35,11.59,11.59,0,1,1,0-23.17,11,11,0,0,1,11,8.35h-4.9a6,6,0,0,0-6.08-4.25c-4.22,0-7,3.2-7,7.49S3168.59,524.14,3172.81,524.14Z"/><path d="M3185.42,520.53a7.84,7.84,0,1,1,7.84,7.71A7.63,7.63,0,0,1,3185.42,520.53Zm4.16,0a3.68,3.68,0,1,0,3.68-4A3.72,3.72,0,0,0,3189.58,520.53Z"/><path d="M3214.54,526a5.36,5.36,0,0,1-4.58,2.24c-4,0-7.1-3.23-7.1-7.71s3-7.71,7.07-7.71a5.31,5.31,0,0,1,4.67,2.27c0-.48-.06-1.7-.06-2.79v-6.84h4.16v22.4h-4.16Zm-7.39-5.47a3.75,3.75,0,1,0,7.48,0,3.75,3.75,0,1,0-7.48,0Z"/><path d="M3236.65,521.74h-10.91a3.47,3.47,0,0,0,6.3,1.44l4.32.45a7.8,7.8,0,1,1-7.39-10.81c4,0,7.68,2.62,7.68,8.76Zm-11-2.78h6.56a3.18,3.18,0,0,0-3.23-2.69A3.27,3.27,0,0,0,3225.64,519Z"/><path d="M3070.31,580.42l7.55-13h5.7v13h2.81v3.68h-2.81v5.73h-4.32v-5.73h-8.93Zm3.84,0h5.09v-8.51h-.16Z"/><path d="M3088.3,586s3.77-3.33,6.62-6,3.42-4.29,3.42-6.11a2.79,2.79,0,0,0-3-2.88,2.7,2.7,0,0,0-3,2.66A5.75,5.75,0,0,0,3093,576l-4.1.74a7.13,7.13,0,0,1-.83-3.46c0-3.13,2.62-6.21,7.39-6.21s7.49,3.2,7.49,6.6c0,2.65-.87,5.21-6.34,10l-2.65,2.34h9.28v3.84H3088.3Z"/><path d="M3120.17,573.38a5.34,5.34,0,0,1-3.2,4.86,5.84,5.84,0,0,1,3.68,5.38c0,4.09-3.17,6.62-7.75,6.62s-7.74-2.53-7.74-6.62a5.79,5.79,0,0,1,3.68-5.38,5.3,5.3,0,0,1-3.23-4.86c0-3.65,2.85-6.31,7.29-6.31S3120.17,569.73,3120.17,573.38Zm-4,10a3.28,3.28,0,1,0-3.27,3.17A3.08,3.08,0,0,0,3116.17,583.39Zm-.39-9.69a2.9,2.9,0,1,0-5.79,0,2.9,2.9,0,1,0,5.79,0Z"/><path d="M3122.79,586s3.78-3.33,6.63-6,3.42-4.29,3.42-6.11a2.8,2.8,0,0,0-3-2.88,2.69,2.69,0,0,0-3,2.66,5.88,5.88,0,0,0,.57,2.33l-4.09.74a7.13,7.13,0,0,1-.83-3.46c0-3.13,2.62-6.21,7.39-6.21s7.49,3.2,7.49,6.6c0,2.65-.87,5.21-6.34,10l-2.66,2.34h9.28v3.84h-14.91Z"/><path d="M3139.3,580.42l7.56-13h5.69v13h2.82v3.68h-2.82v5.73h-4.32v-5.73h-8.93Zm3.84,0h5.09v-8.51h-.16Z"/><rect class="cls-13" x="3083" y="623" width="136" height="45"/><path d="M3112.24,654.86v-22.4h4.45v18.59h9.51v3.81Z"/><path d="M3127.44,647.53a7.84,7.84,0,1,1,7.84,7.71A7.63,7.63,0,0,1,3127.44,647.53Zm4.16,0a3.68,3.68,0,1,0,3.68-4A3.73,3.73,0,0,0,3131.6,647.53Z"/><path d="M3160.63,640.2v15.74c0,2.31-1.15,4.52-4.71,4.52h-6.36v-3.52h5.34c.74,0,1.57-.2,1.57-1.32v-2.81a5.4,5.4,0,0,1-4.55,2.21c-4,0-7-3-7-7.59s3-7.61,7-7.61a5.29,5.29,0,0,1,4.64,2.27c0-.16-.06-.45-.06-1.22v-.67Zm-7.78,11.23a3.67,3.67,0,0,0,3.71-4c0-2.4-1.5-4-3.71-4s-3.68,1.63-3.68,4A3.67,3.67,0,0,0,3152.85,651.43Z"/><path d="M3169.24,654.86h-4.16V643.72h-2V640.2h6.21Zm-2.28-22.4a2.68,2.68,0,0,1,2.69,2.69,2.67,2.67,0,0,1-5.34,0A2.67,2.67,0,0,1,3167,632.46Z"/><path d="M3181.3,639.82a5.1,5.1,0,0,1,5.44,5.44v9.6h-4.16v-8.55a2.37,2.37,0,0,0-2.5-2.62,4.06,4.06,0,0,0-3.1,1.66v9.51h-4.16V640.2h4.06v.58c0,.51-.06,1.15-.06,1.15A5.75,5.75,0,0,1,3181.3,639.82Z"/></svg>